<svg ng-class="{svg_active: svg_PlayStop}" height="300" width="300" viewBox="0 0 340 300" version="1.1" xmlns="http://www.w3.org/2000/svg">
    <defs>
        <clipPath id="clip-dash">
            <circle cx="0" cy="0" r="68" fill="black" />
        </clipPath>
        <clipPath id="clip-dash2">
            <circle cx="0" cy="0" r="110" fill="black" />
        </clipPath>
        <clipPath id="clip-ring">
            <circle cx="25" cy="0" r="0" fill="black" />
        </clipPath>
        <clipPath id="clip-ray">
            <circle cx="0" cy="0" r="158" fill="black" />
        </clipPath>
    </defs>

    <g class="all-wrapper">
        <g class="part-1" ng-class="{svg_active: svg_PlayStop}" stroke-width="0" fill="transparent" fill-rule="evenodd">
            <g class="glob" ng-class="{svg_active: svg_PlayStop}" fill="#221F20">
                <path d="M82.4707297,82.6367058 C74.3997479,76.4315348 63.6359661,72.8118688 52.3393115,72.5460942 L52.3393115,52.3340861 L95.5906085,52.3340861 C95.2433964,64.1675227 90.2944388,74.8448909 82.4707297,82.6367058 M52.3393115,95.6161545 L52.3393115,75.831233 C62.7088994,76.0894141 72.5678691,79.335559 80.0190206,84.9020499 C72.5330448,91.3229191 62.8970327,95.3046133 52.3393115,95.6161545 M21.9826691,84.9034865 C29.3767418,79.3829674 39.1757479,76.1386696 49.4365358,75.8384161 L49.4365358,95.6075348 C38.9674206,95.2465328 29.4150691,91.2779734 21.9826691,84.9034865 M6.40943273,52.3340861 L49.4365358,52.3340861 L49.4365358,72.5532773 C38.2501236,72.8627662 27.5388873,76.4773014 19.5272509,82.6346535 C11.7047782,74.8430439 6.75643879,64.1664966 6.40943273,52.3340861 M17.9146206,21.057233 C26.076063,28.0726575 37.3399539,32.1848789 49.4365358,32.5315147 L49.4365358,49.0503839 L6.43271758,49.0503839 C6.89491152,38.2956435 11.1578933,28.5270398 17.9146206,21.057233 M49.4365358,6.39242414 L49.4365358,29.2463759 C38.200463,28.9056918 27.7702933,25.1286133 20.2130206,18.6950197 C27.8681721,11.3891928 38.1172145,6.78277425 49.4365358,6.39242414 M81.8824267,18.7884 C74.2357236,25.2439533 63.6695539,29.0050237 52.3393115,29.2603316 L52.3393115,6.38400966 C63.7952509,6.72202575 74.1664873,11.380573 81.8824267,18.7884 M95.5673236,49.0503839 L52.3393115,49.0503839 L52.3393115,32.5448547 C64.5251176,32.285237 75.9241842,28.1916918 84.1744388,21.1573859 C90.8790327,28.6144684 95.1071903,38.3434624 95.5673236,49.0503839 M97.9936873,31.1562592 C95.4263782,25.0832571 91.7521115,19.6300539 87.0728873,14.947905 C82.3913964,10.2639091 76.9375903,6.58534165 70.8631297,4.01461328 C64.5688024,1.35070986 57.8856388,8.20925553e-05 50.9999176,8.20925553e-05 C44.1141964,8.20925553e-05 37.4312388,1.35070986 31.1367055,4.01461328 C25.0622448,6.58534165 19.6084388,10.2639091 14.9271539,14.947905 C10.2477236,19.6300539 6.57345697,25.0832571 4.00635394,31.1562592 C1.34796606,37.4449594 -8.24242424e-05,44.1215469 -8.24242424e-05,51.0000821 C-8.24242424e-05,57.8784121 1.34796606,64.5549996 4.00635394,70.8436998 C6.57345697,76.916907 10.2477236,82.3701103 14.9271539,87.0522592 C19.6084388,91.7362551 25.0622448,95.4146173 31.1367055,97.9853457 C37.4312388,100.649454 44.1141964,102.000082 50.9999176,102.000082 C57.8856388,102.000082 64.5688024,100.649454 70.8631297,97.9853457 C76.9375903,95.4146173 82.3913964,91.7362551 87.0728873,87.0522592 C91.7521115,82.3701103 95.4263782,76.916907 97.9936873,70.8436998 C100.652075,64.5549996 101.999918,57.8784121 101.999918,51.0000821 C101.999918,44.1215469 100.652075,37.4449594 97.9936873,31.1562592" id="Fill-1" >
                </path>
                <g class="glob2" ng-class="{svg_active: svg_PlayStop}" >
                    <path d="M51.1471067,4.75258431 C45.6081976,9.08748169 41.0085127,14.247204 37.4634461,20.105534 C32.0613612,29.031868 29.3224036,39.3227855 29.3224036,50.692194 C29.3224036,62.3093167 31.7866824,72.081204 36.8559794,80.5662905 C41.0307673,87.5540089 46.3496036,92.5836145 51.1654461,96.5872684 C56.0066339,92.5680169 61.3487552,87.5238398 65.5157127,80.536532 C70.5565733,72.083872 73.0070461,62.3218358 73.0070461,50.692194 C73.0070461,39.3340732 70.2917855,29.0961054 64.9368885,20.2623308 C61.4437491,14.4996386 56.9250461,9.41564668 51.1471067,4.75258431 L51.1471067,4.75258431 Z M51.1642097,100.83761 L50.1209248,99.9867211 C44.8202218,95.6659847 38.7626582,90.1791235 34.0226461,82.2454938 C28.6413733,73.2382986 26.0254339,62.9170068 26.0254339,50.692194 C26.0254339,38.7169425 28.9236764,27.8556869 34.6395915,18.4103227 C38.6169733,11.8377875 43.8434945,6.09992837 50.1736764,1.35600483 L51.1846097,0.598495775 L52.1809127,1.37509135 C68.1879067,13.8519284 76.3040158,30.4446809 76.3040158,50.692194 C76.3040158,62.9284998 73.7022945,73.2391195 68.3502824,82.2134777 C63.619543,90.1462865 57.5356036,95.6497714 52.2083188,99.9873368 L51.1642097,100.83761 Z" >
                    </path>
                </g>
            </g>
            <circle class="circle-1"  ng-class="{svg_active: svg_PlayStop}"  r="32" cx="0" cy="0" stroke-width="6"/>
            <circle class="circle-2"  ng-class="{svg_active: svg_PlayStop}" r="38" cx="0" cy="0" stroke-width="2" />
            <g class="middle-origin-tiangle"  stroke-width="0" fill="transparent" transform="translate(0, 0)">
                <g class="middle-center-tiangle" stroke-width="0" fill="transparent">
                    <g class="screen-triangle" stroke-width="0"  >
                        <polygon  class="triangle" ng-class="{svg_active: svg_PlayStop}"  fill="#D8D8D8"  points="8 0 16 25 0 25 "></polygon>
                    </g>
                    <g class="screen-triangle" stroke-width="0"  >
                        <polygon  class="triangle" ng-class="{svg_active: svg_PlayStop}"  fill="#D8D8D8"  points="8 0 16 25 0 25 "></polygon>
                    </g>
                    <g class="screen-triangle" stroke-width="0"  >
                        <polygon  class="triangle" ng-class="{svg_active: svg_PlayStop}"  fill="#D8D8D8"  points="8 0 16 25 0 25 "></polygon>
                    </g>
                    <g class="screen-triangle" stroke-width="0"  >
                        <polygon  class="triangle"  ng-class="{svg_active: svg_PlayStop}" fill="#D8D8D8"  points="8 0 16 25 0 25 "></polygon>
                    </g>
                    <g class="screen-triangle" stroke-width="0"  >
                        <polygon  class="triangle" ng-class="{svg_active: svg_PlayStop}"  fill="#D8D8D8"  points="8 0 16 25 0 25 "></polygon>
                    </g>
                    <g class="screen-triangle" stroke-width="0"  >
                        <polygon  class="triangle" ng-class="{svg_active: svg_PlayStop}"  fill="#D8D8D8"  points="8 0 16 25 0 25 "></polygon>
                    </g>
                    <g class="screen-triangle" stroke-width="0"  >
                        <polygon  class="triangle" ng-class="{svg_active: svg_PlayStop}"  fill="#D8D8D8"  points="8 0 16 25 0 25 "></polygon>
                    </g>
                    <g class="screen-triangle" stroke-width="0"  >
                        <polygon  class="triangle" ng-class="{svg_active: svg_PlayStop}"  fill="#D8D8D8"  points="8 0 16 25 0 25 "></polygon>
                    </g>
                    <g class="screen-triangle" stroke-width="0"  >
                        <polygon  class="triangle" ng-class="{svg_active: svg_PlayStop}"  fill="#D8D8D8"  points="8 0 16 25 0 25 "></polygon>
                    </g>
                    <g class="screen-triangle" stroke-width="0"  >
                        <polygon  class="triangle" ng-class="{svg_active: svg_PlayStop}"  fill="#D8D8D8"  points="8 0 16 25 0 25 "></polygon>
                    </g>
                </g>
            </g>
        </g>


        <g class="part-2"  ng-class="{svg_active: svg_PlayStop}" stroke-width="0" fill="transparent" fill-rule="evenodd">
            <circle class="circle-4" ng-class="{svg_active: svg_PlayStop}"  r="48" cx="0" cy="0" stroke-width="2"/>

            <g class="circle-6-holder" ng-class="{svg_active: svg_PlayStop}" >
                <circle class="circle-6-dash"  ng-class="{svg_active: svg_PlayStop}" r="67" cx="0" cy="0" stroke-width="2" clip-path="url(#clip-dash)"/>
                <circle class="circle-6" r="68" cx="0" cy="0"   stroke-width="2" fill="none" />
            </g>

            <g class="middle-origin-system"   ng-class="{svg_active: svg_PlayStop}" stroke-width="0" fill="transparent" transform="translate(0, 0)">
                <g class="circle-3-wrapper">
                    <circle class="circle-3"  ng-class="{svg_active: svg_PlayStop}" r="43" cx="0" cy="0" stroke-width="4" />
                    <circle class="circle-3-dash" ng-class="{svg_active: svg_PlayStop}"  r="43" cx="0" cy="0" stroke-width="4" />
                </g>
                <g class="middle-center-system"  stroke-width="0" fill="transparent">
                    <g class="screen-system icon-mac" stroke-width="0" >
                        <g id="icon-mac" class="system" ng-class="{svg_active: svg_PlayStop}" >
                            <path d="M14.1137905,11.2280515 C13.545286,8.47944853 16.2645586,6.863125 16.2645586,6.863125 C16.2645586,6.863125 15.2019437,5.39286765 13.4242568,5.014375 C11.6454595,4.63481618 10.7527297,5.10606618 9.86333108,5.46430147 C8.97393243,5.81827206 8.53200901,5.81827206 8.53200901,5.81827206 C7.24288063,5.81827206 6.30684685,4.51433824 3.86072297,5.10606618 C2.17297523,5.51867647 0.398619369,7.38448529 0.0777252252,9.61599265 C-0.243168919,11.8485662 0.450806306,14.693125 1.78212838,16.9001103 C3.11900225,19.1081618 4.47586261,19.9408456 5.43854505,19.9611029 C6.40677928,19.9866912 7.36946171,19.2990074 8.53200901,19.1326838 C9.69011486,18.9663603 10.4051869,19.5367647 11.545527,19.8448897 C12.682536,20.1530147 13.076714,19.8662132 14.3869392,18.8000368 C15.6971644,17.7295956 16.88525,14.6686029 16.88525,14.6686029 C16.88525,14.6686029 14.682295,13.9809191 14.1137905,11.2280515 L14.1137905,11.2280515 Z" ></path>
                            <path d="M11.5932725,3.23172794 C12.8557523,1.99922794 12.4260428,0.0875735294 12.4260428,0.0875735294 C12.4260428,0.0875735294 10.6572387,0.387169118 9.46804279,1.56955882 C8.28439865,2.75727941 8.47982207,4.63161765 8.47982207,4.63161765 C8.47982207,4.63161765 10.3319032,4.46422794 11.5932725,3.23172794 L11.5932725,3.23172794 Z" ></path>
                        </g>
                    </g>

                    <g class="screen-system icon-linux" stroke-width="0"  >
                        <g id="icon-linux" class="system" ng-class="{svg_active: svg_PlayStop}"   >
                            <path d="M16.7532328,16.2071982 C16.21875,15.9932252 15.78125,15.6559279 15.8146552,15.0087387 C15.84375,14.3668198 15.3426724,13.9388739 15.3426724,13.9388739 C15.3426724,13.9388739 15.78125,12.5264414 15.3728448,11.3564414 C14.9644397,10.1917117 13.6174569,8.31865766 12.5818966,6.91044144 C11.5463362,5.49800901 12.4256466,3.86738739 11.4827586,1.78352252 C10.5398707,-0.303504505 8.09482759,-0.18018018 6.77693966,0.709441441 C5.45905172,1.59906306 5.86314655,3.8051982 5.92672414,4.85187387 C5.99030172,5.89327928 5.95581897,6.6384955 5.83405172,6.90622523 C5.71228448,7.17817117 4.86206897,8.16581982 4.29741379,8.99325225 C3.73383621,9.8249009 3.32543103,11.541955 2.91271552,12.2502793 C2.50862069,12.9543874 2.79094828,13.5963063 2.79094828,13.5963063 C2.79094828,13.5963063 2.50862069,13.6911712 2.28556034,14.1528468 C2.06681034,14.6092523 1.62931034,14.8274414 0.841594828,14.9760631 C0.0592672414,15.1331171 0.0592672414,15.6264144 0.247844828,16.1787387 C0.4375,16.730009 0.247844828,17.0388468 0.0290948276,17.742955 C-0.189655172,18.4470631 0.905172414,18.661036 1.97413793,18.7843604 C3.0387931,18.9087387 4.23491379,19.5833333 5.23599138,19.7024414 C6.2424569,19.8268198 6.55387931,19.0320631 6.55387931,19.0320631 C6.55387931,19.0320631 7.68642241,18.7843604 8.87715517,18.7559009 C10.0689655,18.7232252 11.1971983,18.9983333 11.1971983,18.9983333 C11.1971983,18.9983333 11.4159483,19.4884685 11.8243534,19.7024414 C12.2327586,19.9206306 13.112069,19.9501441 13.6756466,19.3693604 C14.2403017,18.7843604 15.7467672,18.0475766 16.5926724,17.586955 C17.4439655,17.1252793 17.2877155,16.4211712 16.7532328,16.2071982 L16.7532328,16.2071982 Z M9.41163793,2.67314414 C9.95043103,2.67314414 10.3846983,3.19595495 10.3846983,3.83892793 C10.3846983,4.29533333 10.1659483,4.6906036 9.84590517,4.88033333 C9.76508621,4.84765766 9.68103448,4.81076577 9.58836207,4.77281982 C9.78232759,4.67900901 9.91702586,4.43973874 9.91702586,4.16357658 C9.91702586,3.80203604 9.68965517,3.50479279 9.40409483,3.50479279 C9.12607759,3.50479279 8.89439655,3.80203604 8.89439655,4.16357658 C8.89439655,4.29533333 8.92780172,4.42709009 8.98275862,4.53038739 C8.81465517,4.46398198 8.66271552,4.40706306 8.54094828,4.36173874 C8.47737069,4.20468468 8.43965517,4.0276036 8.43965517,3.83892793 C8.43965517,3.19595495 8.87284483,2.67314414 9.41163793,2.67314414 L9.41163793,2.67314414 Z M9.34051724,5.1311982 C9.60991379,5.22184685 9.90840517,5.3904955 9.87931034,5.55914414 C9.84590517,5.73306306 9.70689655,5.73306306 9.34051724,5.95125225 C8.97844828,6.16522523 8.1875,6.64271171 7.93426724,6.67538739 C7.68211207,6.70806306 7.5387931,6.56892793 7.26939655,6.39922523 C7,6.22636036 6.49461207,5.82265766 6.62176724,5.60868468 C6.62176724,5.60868468 7.01724138,5.3124955 7.18965517,5.16071171 C7.36206897,5.00365766 7.80818966,4.63368468 8.07758621,4.68217117 C8.34267241,4.7274955 9.07112069,5.03633333 9.34051724,5.1311982 L9.34051724,5.1311982 Z M6.91594828,2.85865766 C7.34051724,2.85865766 7.68642241,3.35300901 7.68642241,3.96225225 C7.68642241,4.07292793 7.67349138,4.17622523 7.65301724,4.27952252 C7.54741379,4.3121982 7.44181034,4.36595495 7.34051724,4.45238739 C7.29094828,4.4934955 7.24461207,4.53038739 7.20258621,4.5714955 C7.26939655,4.44817117 7.29525862,4.27109009 7.26508621,4.08557658 C7.20689655,3.75671171 6.97952586,3.51322523 6.75646552,3.5459009 C6.53232759,3.58279279 6.3987069,3.88425225 6.45258621,4.21733333 C6.51185345,4.55463063 6.73491379,4.79811712 6.96228448,4.76122523 C6.97521552,4.75700901 6.98706897,4.75279279 7,4.74857658 C6.89116379,4.85187387 6.78987069,4.94252252 6.68426724,5.01630631 C6.37715517,4.87611712 6.14978448,4.4566036 6.14978448,3.96225225 C6.14978448,3.34879279 6.49030172,2.85865766 6.91594828,2.85865766 L6.91594828,2.85865766 Z M6.0862069,18.3648468 C5.99030172,18.8054414 5.45905172,19.1269279 5.45905172,19.1269279 C4.98383621,19.2702793 3.65840517,18.7105766 3.05603448,18.4639279 C2.45366379,18.2162252 0.921336207,18.1424414 0.724137931,17.9242523 C0.521551724,17.7018468 0.82112069,17.2117117 0.900862069,16.7468739 C0.971982759,16.2767658 0.748922414,15.9847928 0.825431034,15.6675225 C0.900862069,15.3513063 1.87715517,15.3513063 2.25215517,15.1289009 C2.62715517,14.9064955 2.70258621,14.2677387 3.00538793,14.0990901 C3.30387931,13.9262252 3.85560345,14.5396847 4.08297414,14.8854144 C4.30603448,15.2227117 5.16056034,16.6973333 5.50969828,17.0641441 C5.86314655,17.4341171 6.1875,17.9242523 6.0862069,18.3648468 L6.0862069,18.3648468 Z M11.6390086,14.0864414 C11.5463362,14.5186036 11.5463362,16.0838739 11.5463362,16.0838739 C11.5463362,16.0838739 10.5732759,17.4014414 9.06681034,17.6196306 C7.56034483,17.8336036 6.80603448,17.6776036 6.80603448,17.6776036 L5.96012931,16.730009 C5.96012931,16.730009 6.6174569,16.6351441 6.52478448,15.989009 C6.43211207,15.3470901 4.51616379,14.4574685 4.17133621,13.6584955 C3.82650862,12.8595225 4.10775862,11.5092793 4.55064655,10.8336306 C4.98814655,10.159036 5.27047414,8.68441441 5.70797414,8.19427928 C6.14978448,7.7051982 6.49030172,6.66273874 6.33512931,6.20211712 C6.33512931,6.20211712 7.27801724,7.30571171 7.93426724,7.12441441 C8.59159483,6.9389009 10.0689655,5.86481982 10.2877155,6.04927928 C10.5064655,6.23479279 12.387931,10.2823604 12.5775862,11.5714685 C12.7672414,12.8595225 12.4515086,13.844009 12.4515086,13.844009 C12.4515086,13.844009 11.731681,13.6584955 11.6390086,14.0864414 L11.6390086,14.0864414 Z M16.4547414,16.9808739 C16.1594828,17.2443874 14.5258621,17.8873604 14.0377155,18.3890901 C13.5538793,18.8876577 12.9181034,19.2955766 12.53125,19.1754144 C12.1400862,19.0563063 11.7984914,18.5334955 11.9665948,17.7682523 C12.1400862,17.0061712 12.2866379,16.1703063 12.2618534,15.6928198 C12.2359914,15.2153333 12.1400862,14.5723604 12.2618534,14.4774955 C12.3836207,14.3836847 12.5775862,14.429009 12.5775862,14.429009 C12.5775862,14.429009 12.4806034,15.3344414 13.0409483,15.5726577 C13.6002155,15.8119279 14.4040948,15.4788468 14.6487069,15.2395766 C14.8922414,15.0013604 15.0646552,14.6471982 15.0646552,14.6471982 C15.0646552,14.6471982 15.3092672,14.7663063 15.2844828,15.1447117 C15.2586207,15.5283874 15.4525862,16.0754414 15.8189655,16.2651712 C16.1853448,16.4538468 16.7446121,16.7173604 16.4547414,16.9808739 L16.4547414,16.9808739 Z" ></path>
                        </g>
                    </g>

                    <g class="screen-system icon-windows" stroke-width="0"   >
                        <g id="icon-windows" class="system" ng-class="{svg_active: svg_PlayStop}" >
                            <path d="M4.20763636,0.896342466 C4.20763636,0.896342466 8.18327273,-1.18126712 11.5844848,1.32180822 L9.68121212,7.60470548 C9.68121212,7.60470548 7.5510303,6.19521918 5.96933333,6.34717123 C4.38763636,6.49900685 2.30448485,7.22663014 2.30448485,7.22663014 L4.20763636,0.896342466" ></path>
                            <path d="M1.96909091,8.33372603 C1.96909091,8.33372603 4.10290909,7.38032877 5.87442424,7.50189041 C7.64606061,7.62345205 9.06060606,8.53935616 9.36569697,8.74976027 L7.44254545,15.0980959 C7.44254545,15.0980959 5.30509091,13.7619658 3.78654545,13.8835274 C2.26812121,14.005089 0.951878788,14.2272534 0.0756363636,14.6631986 L1.96909091,8.33372603" ></path>
                            <path d="M10.3615758,9.36420548 C10.3615758,9.36420548 12.3912727,10.6319863 13.7197576,10.6015959 C15.0287273,10.5716712 15.934303,10.4723493 17.7101818,9.80376027 C17.7241212,9.79863699 17.7601212,9.77383562 17.7483636,9.78105479 C17.7101818,9.80376027 15.8453333,16.0724521 15.8453333,16.0724521 C15.8453333,16.0724521 13.7515152,17.0135068 11.8533333,16.9224521 C9.95539394,16.8312808 8.81551515,15.7885753 8.468,15.6565342 L10.3615758,9.36420548" ></path>
                            <path d="M12.5909091,1.98469178 L10.6829091,8.23114384 C10.6829091,8.23114384 12.2330909,9.68988356 14.4158788,9.56832192 C16.5985455,9.44676027 17.7849697,8.78585616 18.0734545,8.69270548 L19.9676364,2.39106164 C19.9676364,2.39106164 17.4527273,3.39941781 15.8076364,3.21707534 C14.1627879,3.03484932 13.1381818,2.36288356 12.5909091,1.98469178" ></path>
                        </g>
                    </g>

                    <g class="screen-system icon-android" stroke-width="0"   >
                        <g id="icon-android" class="system" ng-class="{svg_active: svg_PlayStop}"  >
                            <path d="M1.2125,6.56589147 L1.16354167,6.56589147 C0.520833333,6.56589147 0,7.09724031 0,7.74350388 L0,12.8703876 C0,13.5177054 0.520833333,14.0490543 1.16354167,14.0490543 L1.2125,14.0490543 C1.85520833,14.0490543 2.37604167,13.5177054 2.37604167,12.8703876 L2.37604167,7.74350388 C2.37604167,7.09724031 1.85104167,6.56589147 1.2125,6.56589147 L1.2125,6.56589147 Z" ></path>
                            <path d="M2.93333333,14.8471318 C2.93333333,15.4448992 3.41354167,15.9266977 4.00416667,15.9266977 L5.146875,15.9266977 L5.146875,18.6983566 C5.146875,19.3488372 5.66770833,19.875969 6.31145833,19.875969 L6.359375,19.875969 C7.003125,19.875969 7.52395833,19.3446202 7.52395833,18.6983566 L7.52395833,15.9266977 L9.12291667,15.9266977 L9.12291667,18.6983566 C9.12291667,19.3488372 9.64791667,19.875969 10.2864583,19.875969 L10.3354167,19.875969 C10.978125,19.875969 11.4989583,19.3446202 11.4989583,18.6983566 L11.4989583,15.9266977 L12.6427083,15.9266977 C13.228125,15.9266977 13.7125,15.4448992 13.7125,14.8471318 L13.7125,6.75565891 L2.93333333,6.75565891 L2.93333333,14.8471318 Z" ></path>
                            <path d="M11.00625,1.84595349 L11.9145833,0.425860465 C11.9708333,0.339410853 11.946875,0.216062016 11.8572917,0.158077519 C11.7677083,0.095875969 11.65,0.121178295 11.5927083,0.216062016 L10.6489583,1.68148837 C9.94479167,1.38945736 9.15520833,1.22499225 8.325,1.22499225 C7.490625,1.22499225 6.70208333,1.38945736 5.99791667,1.68148837 L5.05729167,0.216062016 C5.00104167,0.121178295 4.87916667,0.095875969 4.78958333,0.158077519 C4.7,0.216062016 4.675,0.339410853 4.73229167,0.425860465 L5.63958333,1.84595349 C4.00416667,2.65773643 2.896875,4.1895814 2.896875,5.94387597 C2.896875,6.05141085 2.90520833,6.15789147 2.91354167,6.26542636 L13.7333333,6.26542636 C13.740625,6.15789147 13.7489583,6.05141085 13.7489583,5.94387597 C13.7489583,4.1895814 12.6427083,2.65773643 11.00625,1.84595349 L11.00625,1.84595349 Z M5.81458333,4.38356589 C5.52604167,4.38356589 5.29375,4.14846512 5.29375,3.85643411 C5.29375,3.56334884 5.52604167,3.33351938 5.81458333,3.33351938 C6.103125,3.33351938 6.33541667,3.56334884 6.33541667,3.85643411 C6.33541667,4.14846512 6.103125,4.38356589 5.81458333,4.38356589 L5.81458333,4.38356589 Z M10.83125,4.38356589 C10.5427083,4.38356589 10.3104167,4.14846512 10.3104167,3.85643411 C10.3104167,3.56334884 10.5427083,3.33351938 10.83125,3.33351938 C11.1208333,3.33351938 11.3520833,3.56334884 11.3520833,3.85643411 C11.3520833,4.14846512 11.1208333,4.38356589 10.83125,4.38356589 L10.83125,4.38356589 Z" ></path>
                            <path d="M15.4822917,6.56589147 L15.4333333,6.56589147 C14.790625,6.56589147 14.2697917,7.09724031 14.2697917,7.74350388 L14.2697917,12.8703876 C14.2697917,13.5177054 14.7947917,14.0490543 15.4333333,14.0490543 L15.4822917,14.0490543 C16.125,14.0490543 16.6458333,13.5177054 16.6458333,12.8703876 L16.6458333,7.74350388 C16.6458333,7.09724031 16.121875,6.56589147 15.4822917,6.56589147 L15.4822917,6.56589147 Z"></path>
                        </g>
                    </g>
                    <circle class="circle-5-dash" r="56" cx="0" cy="0" stroke-width="15" />
                </g>
            </g>

        </g>


        <g class="part-3"  ng-class="{svg_active: svg_PlayStop}" stroke-width="0" fill="transparent" fill-rule="evenodd">
            <circle  class="circle-7c" r="75" cx="0" cy="0"  stroke="black" stroke-width="2" fill="none"  />

            <circle  class="circle-7" r="82" cx="0" cy="0"  stroke="black" stroke-width="2" fill="none"  />

            <g class="middle-origin-media"  stroke-width="0" fill="transparent" transform="translate(0, 0)">


                <g class="middle-center-media"  ng-class="{svg_active: svg_PlayStop}"  stroke-width="0" fill="transparent">
                    <g class="circle-7-bg">
                        <circle  class="circle-7-media"  ng-class="{svg_active: svg_PlayStop}" r="82" cx="0" cy="0"  stroke="black" stroke-width="2" fill="none"  />
                    </g>
                    <g class="media-system icon-tv" ng-class="{svg_active: svg_PlayStop}"  stroke-width="0" >
                        <path  ng-class="{svg_active: svg_PlayStop}" d="M86.0454545,79.625 L125,79.625 L125,0 L0,0 L0,79.625 L40,79.625 L40,87.5123115 L86.0454545,87.5123115 L86.0454545,79.625 Z M7.38636364,6.25625 L118.181818,6.25625 L118.181818,72.9876885 L7.38636364,72.9876885 L7.38636364,6.25625 Z M45.4545455,56.875 L45.4545455,22.75 L79.5454545,39.8125 L45.4545455,56.875 Z" id="tv-box"></path>
                    </g>

                    <g class="media-system icon-imac" ng-class="{svg_active: svg_PlayStop}"  stroke-width="0"  >
                        <path  ng-class="{svg_active: svg_PlayStop}" d="M2.84217094e-14,9.00213944 C2.84217094e-14,4.03039511 4.0349711,0 9.00973427,0 L110.2101,0 C115.186039,0 119.219835,4.02611559 119.219835,9.00213944 L119.219835,72.7479519 C119.219835,77.7196962 115.184864,81.7500913 110.2101,81.7500913 L9.00973427,81.7500913 C4.03379543,81.7500913 2.84217094e-14,77.7239758 2.84217094e-14,72.7479519 L2.84217094e-14,9.00213944 Z M44.2428702,81.8724495 C44.2428702,81.8724495 43.6099799,87.2385128 43.1419764,88.7536902 C42.7208291,90.1171691 41.6891191,93.6432278 39.8375039,94.8013938 C34.4610353,98.1643188 39.1391741,99.5615638 39.1391741,99.5615638 L57.5476318,99.5139118 L57.5476318,81.7500913 L44.2428702,81.8724495 Z M70.8523934,81.8724495 C70.8523934,81.8724495 71.4852838,87.2385128 71.9532873,88.7536902 C72.3744345,90.1171691 73.4061446,93.6432278 75.2577597,94.8013938 C80.6342283,98.1643188 75.9560896,99.5615638 75.9560896,99.5615638 L57.5476318,99.5139118 L57.5476318,81.7500913 L70.8523934,81.8724495 Z M6.41952956,5.48045305 L113.258843,5.48045305 L113.258843,66.222141 L6.41952956,66.222141 L6.41952956,5.48045305 Z"></path>
                    </g>
                    <g class="media-system icon-ipad" ng-class="{svg_active: svg_PlayStop}"  stroke-width="0"   >
                        <path  ng-class="{svg_active: svg_PlayStop}" d="M0,8.99461556 C0,4.02702656 4.03243067,0 8.99787322,0 L67.0021268,0 C71.9715149,0 76,4.02729807 76,8.99461556 L76,91.3655285 C76,96.3331175 71.9675693,100.360144 67.0021268,100.360144 L8.99787322,100.360144 C4.02848506,100.360144 0,96.332846 0,91.3655285 L0,8.99461556 Z M7.87804878,7.79051347 L67.6585366,7.79051347 L67.6585366,87.5287101 L7.87804878,87.5287101 L7.87804878,7.79051347 Z M38.695122,98.5270821 C40.8705851,98.5270821 42.6341463,96.7831162 42.6341463,94.6318253 C42.6341463,92.4805344 40.8705851,90.7365686 38.695122,90.7365686 C36.5196589,90.7365686 34.7560976,92.4805344 34.7560976,94.6318253 C34.7560976,96.7831162 36.5196589,98.5270821 38.695122,98.5270821 Z" ></path>
                    </g>
                    <g class="media-system icon-iphone" ng-class="{svg_active: svg_PlayStop}"  stroke-width="0"   >
                        <path  ng-class="{svg_active: svg_PlayStop}" d="M0,5.99306484 C0,2.68318653 2.6784881,0 5.99580311,0 L49.5375302,0 C52.8489208,0 55.5333333,2.68768095 55.5333333,5.99306484 L55.5333333,94.0069352 C55.5333333,97.3168135 52.8548452,100 49.5375302,100 L5.99580311,100 C2.68441249,100 0,97.312319 0,94.0069352 L0,5.99306484 Z M22.2133333,10.443038 C22.2133333,9.91871701 22.631878,9.49367089 23.1558244,9.49367089 L33.0308423,9.49367089 C33.5513657,9.49367089 33.9733333,9.91506154 33.9733333,10.443038 C33.9733333,10.9673589 33.5547887,11.3924051 33.0308423,11.3924051 L23.1558244,11.3924051 C22.6353009,11.3924051 22.2133333,10.9710144 22.2133333,10.443038 Z M27.7666667,95.5696203 C30.1120359,95.5696203 32.0133333,93.7277537 32.0133333,91.4556962 C32.0133333,89.1836387 30.1120359,87.3417722 27.7666667,87.3417722 C25.4212974,87.3417722 23.52,89.1836387 23.52,91.4556962 C23.52,93.7277537 25.4212974,95.5696203 27.7666667,95.5696203 Z M5.22666667,16.4556962 L50.3066667,16.4556962 L50.3066667,84.1772152 L5.22666667,84.1772152 L5.22666667,16.4556962 Z" ></path>
                    </g>
                    <g class="media-system icon-smartwatch" ng-class="{svg_active: svg_PlayStop}"  stroke-width="0"   >
                        <path  ng-class="{svg_active: svg_PlayStop}" d="M44.7151233,57.1423125 C41.5960963,57.1423125 39.0674679,54.6451055 39.0674679,51.5641875 C39.0674679,48.483668 41.5960963,45.9862617 44.7151233,45.9862617 C47.833951,45.9862617 50.3625794,48.483668 50.3625794,51.5641875 C50.3625794,54.6451055 47.833951,57.1423125 44.7151233,57.1423125 M35.8119037,71.6189414 C32.6928767,71.6189414 30.1642483,69.1217344 30.1642483,66.0408164 C30.1642483,62.9602969 32.6928767,60.4628906 35.8119037,60.4628906 C38.9307314,60.4628906 41.4593598,62.9602969 41.4593598,66.0408164 C41.4593598,69.1217344 38.9307314,71.6189414 35.8119037,71.6189414 M21.5799476,51.0661406 C21.5799476,47.563875 24.454603,44.7246094 28.0007821,44.7246094 C31.5467618,44.7246094 34.4212179,47.563875 34.4212179,51.0661406 C34.4212179,54.5688047 31.5467618,57.4078711 28.0007821,57.4078711 C24.454603,57.4078711 21.5799476,54.5688047 21.5799476,51.0661406 M19.9989071,71.6189414 C16.8796807,71.6189414 14.3512517,69.1217344 14.3512517,66.0408164 C14.3512517,62.9602969 16.8796807,60.4628906 19.9989071,60.4628906 C23.1177348,60.4628906 25.6463632,62.9602969 25.6463632,66.0408164 C25.6463632,69.1217344 23.1177348,71.6189414 19.9989071,71.6189414 M5.58098142,51.5641875 C5.58098142,48.483668 8.1096098,45.9862617 11.2286368,45.9862617 C14.3474645,45.9862617 16.8760929,48.483668 16.8760929,51.5641875 C16.8760929,54.6451055 14.3474645,57.1423125 11.2286368,57.1423125 C8.1096098,57.1423125 5.58098142,54.6451055 5.58098142,51.5641875 M19.9987078,30.3143203 C23.1177348,30.3143203 25.6463632,32.8119258 25.6463632,35.8924453 C25.6463632,38.9731641 23.1177348,41.4705703 19.9987078,41.4705703 C16.8796807,41.4705703 14.3512517,38.9731641 14.3512517,35.8924453 C14.3512517,32.8119258 16.8796807,30.3143203 19.9987078,30.3143203 M35.8119037,30.3143203 C38.9307314,30.3143203 41.4593598,32.8119258 41.4593598,35.8924453 C41.4593598,38.9731641 38.9307314,41.4705703 35.8119037,41.4705703 C32.6928767,41.4705703 30.1642483,38.9731641 30.1642483,35.8924453 C30.1642483,32.8119258 32.6928767,30.3143203 35.8119037,30.3143203 M57.2725557,33.1033828 L55.9436605,33.1033828 L55.9436605,29.1855469 C55.9436605,23.7942891 51.5708834,19.4238281 46.1767686,19.4238281 L9.76699155,19.4238281 C4.37267736,19.4238281 9.96621622e-05,23.7942891 9.96621622e-05,29.1855469 L9.96621622e-05,73.2792305 C9.96621622e-05,78.6704883 4.37267736,83.0409492 9.76699155,83.0409492 L46.1767686,83.0409492 C51.5708834,83.0409492 55.9436605,78.6704883 55.9436605,73.2792305 L55.9436605,69.7596328 L58.0032787,69.7596328 C58.1868564,69.7596328 58.3355524,69.6110156 58.3355524,69.4277344 L58.3355524,53.8886719 C58.3355524,53.7051914 58.1868564,53.5565742 58.0032787,53.5565742 L55.9436605,53.5565742 L55.9436605,44.7246094 L57.2725557,44.7246094 C58.226522,44.7246094 58.9999003,43.9516406 58.9999003,42.9979805 L58.9999003,34.8298125 C58.9999003,33.8763516 58.226522,33.1033828 57.2725557,33.1033828 Z M10.4978142,98.4806016 C10.4978142,100.424379 12.0744696,102 14.019277,102 L41.7915338,102 C43.7363412,102 45.3129966,100.424379 45.3129966,98.4806016 L46.9075912,87.0916641 C46.9075912,86.5414219 46.4613041,86.0955703 45.9109696,86.0955703 L9.76669257,86.0955703 C9.21635811,86.0955703 8.77007095,86.5414219 8.77007095,87.0916641 L10.4978142,98.4806016 Z M10.4978142,3.51939844 C10.4978142,1.57562109 12.0744696,0 14.019277,0 L41.7915338,0 C43.7363412,0 45.3129966,1.57562109 45.3129966,3.51939844 L46.9075912,14.9083359 C46.9075912,15.4585781 46.4613041,15.9044297 45.9109696,15.9044297 L9.76669257,15.9044297 C9.21635811,15.9044297 8.77007095,15.4585781 8.77007095,14.9083359 L10.4978142,3.51939844 Z" id="Fill-1" sketch:type="MSShapeGroup"></path>
                    </g>


                </g>
            </g>
            <circle class="circle-7a" ng-class="{svg_active: svg_PlayStop}" r="82" cx="0" cy="0"  stroke="black" stroke-width="2" fill="none"  />
        </g>
        <g class="part-4"  ng-class="{svg_active: svg_PlayStop}" stroke-width="0" fill="transparent" fill-rule="evenodd">


            <circle class="circle-8b"  ng-class="{svg_active: svg_PlayStop}" r="104" cx="0" cy="0"   />
            <circle class="circle-8" r="99" cx="0" cy="0"   />
            <circle class="circle-8d" r="109" cx="0" cy="0"   />
            <circle class="circle-8e"  ng-class="{svg_active: svg_PlayStop}" r="104" cx="0" cy="0"   />



            <g class="middle-origin-browser" ng-class="{svg_active: svg_PlayStop}" stroke-width="0" fill="transparent" transform="translate(0, 0)">
                <circle class="circle-8a"  ng-class="{svg_active: svg_PlayStop}" r="104" cx="0" cy="0"  stroke="black" stroke-width="2"   />
                <circle class="circle-8c"  ng-class="{svg_active: svg_PlayStop}"  r="104" cx="0" cy="0"  />

                <g class="middle-center-browser" stroke-width="0" fill="transparent">
                    <g class="screen-browser" stroke-width="0"  >
                        <circle class="stroke-browser" ng-class="{svg_active: svg_PlayStop}"  cx="0" cy="0" r="9"  />
                        <path class="icon-opera" ng-class="{svg_active: svg_PlayStop}" d="M34.1816316,18.6678 C33.9722632,16.4889 33.5526316,14.3622 32.9236316,12.2868 C32.2946316,10.2141 31.3327895,8.6139 30.0398947,7.488 C28.7461053,6.3639 27.1212632,5.8005 25.1644737,5.8005 C23.2067895,5.8005 21.5998421,6.3459 20.3409474,7.4358 C19.0829474,8.5266 18.156,10.125 17.5627895,12.2346 C16.9686842,14.3442 16.5669474,16.4529 16.3566842,18.5625 C16.1473158,20.6721 16.0426316,23.2389 16.0426316,26.262 C16.0426316,28.1601 16.0775263,29.7594 16.1473158,31.0608 C16.2162105,32.3622 16.3396842,33.9444 16.5141579,35.8065 C16.6877368,37.6695 16.9686842,39.2346 17.3534211,40.5 C17.7363684,41.7654 18.2606842,43.0146 18.9254737,44.244 C19.5893684,45.4752 20.4465263,46.4058 21.4942632,47.0394 C22.5428947,47.6721 23.766,47.988 25.1644737,47.988 C26.5620526,47.988 27.8021579,47.6721 28.8865789,47.0394 C29.9692105,46.4058 30.8433684,45.4752 31.5081579,44.244 C32.1711579,43.0146 32.7133684,41.7654 33.133,40.5 C33.5526316,39.2346 33.8675789,37.6695 34.0769474,35.8065 C34.2863158,33.9444 34.408,32.3442 34.4437895,31.0077 C34.4777895,29.673 34.4965789,28.0908 34.4965789,26.262 C34.4965789,23.3793 34.391,20.8485 34.1816316,18.6678 L34.1816316,18.6678 L34.1816316,18.6678 Z M43.3562632,7.3827 C48.144,12.3048 50.5383158,18.7731 50.5383158,26.7894 C50.5383158,34.1028 48.144,40.4658 43.3562632,45.8793 C38.5667368,51.2919 32.504,54 25.1644737,54 C17.8938421,54 11.883,51.2919 7.13015789,45.8793 C2.37552632,40.4658 0,34.1028 0,26.7894 C0,18.7731 2.34152632,12.3048 7.02547368,7.3827 C11.7076316,2.4615 17.7551579,0 25.1644737,0 C32.504,0 38.5667368,2.4615 43.3562632,7.3827 L43.3562632,7.3827 L43.3562632,7.3827 Z" id="Fill-1"></path>

                    </g>
                    <g class="screen-browser " stroke-width="0"  >
                        <circle class="stroke-browser" ng-class="{svg_active: svg_PlayStop}"  cx="0" cy="0" r="9" />
                        <path class="icon-chrome" ng-class="{svg_active: svg_PlayStop}"  d="M40.781,18.984 L57.891,18.984 C59.297,22.5 60,26.173 60,30 C60,38.203 57.108,45.234 51.328,51.094 C45.546,56.953 38.555,59.921 30.352,60 L42.656,38.789 C44.452,36.134 45.352,33.204 45.352,30 C45.352,25.704 43.828,22.031 40.781,18.984 L40.781,18.984 Z M22.324,37.676 C20.175,35.528 19.102,32.97 19.102,30 C19.102,27.032 20.175,24.474 22.324,22.324 C24.472,20.176 27.03,19.102 30,19.102 C32.968,19.102 35.526,20.176 37.676,22.324 C39.823,24.474 40.898,27.032 40.898,30 C40.898,32.97 39.823,35.528 37.676,37.676 C35.526,39.825 32.968,40.898 30,40.898 C27.03,40.898 24.472,39.825 22.324,37.676 L22.324,37.676 Z M15.117,26.133 L6.563,11.25 C9.375,7.734 12.812,4.98 16.875,2.988 C20.937,0.996 25.312,0 30,0 C35.391,0 40.371,1.329 44.941,3.984 C49.512,6.641 53.124,10.235 55.781,14.766 L31.289,14.766 C30.898,14.688 30.469,14.648 30,14.648 C26.484,14.648 23.339,15.723 20.566,17.871 C17.792,20.021 15.976,22.774 15.117,26.133 L15.117,26.133 Z M34.102,44.766 L25.547,59.648 C18.281,58.554 12.206,55.216 7.324,49.629 C2.441,44.044 0,37.5 0,30 C0,24.767 1.289,19.845 3.867,15.234 L16.055,36.563 C17.304,39.141 19.179,41.25 21.68,42.891 C24.179,44.531 26.953,45.352 30,45.352 C31.406,45.352 32.772,45.157 34.102,44.766 L34.102,44.766 Z"></path>
                    </g>
                    <g class="screen-browser" stroke-width="0"  >
                        <circle class="stroke-browser" ng-class="{svg_active: svg_PlayStop}"  cx="0" cy="0" r="9"  />
                        <path class="icon-firefox" ng-class="{svg_active: svg_PlayStop}"  d="M60,18.609 C60,19.353 59.942,20.797 59.825,22.945 C59.707,25.095 59.453,27.204 59.063,29.273 C58.671,31.345 57.95,33.668 56.895,36.246 C55.839,38.824 54.551,41.149 53.027,43.219 C51.504,45.289 49.414,47.243 46.758,49.078 C44.101,50.914 41.093,52.224 37.735,53.004 C35.936,53.473 34.101,53.746 32.226,53.824 C32.148,53.824 31.993,53.862 31.758,53.941 C30.194,54.019 28.632,54.019 27.07,53.941 C17.382,53.161 10,48.395 4.922,39.644 C2.578,35.504 1.249,31.559 0.938,27.809 C0.703,28.903 0.546,29.841 0.469,30.621 C0.234,26.168 0.586,22.535 1.523,19.723 C0.82,20.894 0.312,21.989 0,23.004 C0.625,19.488 1.445,16.716 2.461,14.684 C2.538,14.215 3.007,13.356 3.867,12.105 L3.867,11.754 C3.71,9.567 3.926,7.594 4.512,5.836 C5.098,4.078 5.585,2.985 5.977,2.555 C6.367,2.126 6.68,1.793 6.914,1.559 C6.991,3.434 7.969,5.231 9.844,6.949 C10.313,7.028 10.741,7.066 11.133,7.066 C13.085,6.676 15.117,6.715 17.227,7.184 C18.476,5.622 20.391,4.567 22.969,4.02 L25.195,3.902 C22.929,5.231 21.562,7.145 21.094,9.645 C21.953,11.442 23.086,12.34 24.492,12.34 L27.07,12.34 C28.398,12.34 29.101,12.457 29.18,12.691 L29.18,12.926 C29.257,13.004 29.257,13.122 29.18,13.277 L29.18,13.512 C29.101,14.293 28.828,14.879 28.359,15.269 C28.281,15.269 28.242,15.29 28.242,15.328 C28.242,15.368 28.202,15.387 28.125,15.387 C28.125,15.465 27.773,15.7 27.07,16.09 C26.133,16.716 25.39,17.223 24.844,17.613 C23.828,18.239 23.32,18.668 23.32,18.902 L23.32,19.019 L23.203,19.019 C23.437,19.488 23.593,20.074 23.672,20.777 C23.828,21.48 23.866,21.911 23.789,22.066 L23.789,23.121 C22.852,22.652 21.953,22.341 21.094,22.184 C19.999,22.652 19.375,23.161 19.219,23.707 C19.14,24.02 19.062,24.333 18.984,24.644 C18.984,26.129 20.039,27.497 22.148,28.746 C23.007,29.293 23.886,29.606 24.785,29.684 C25.683,29.763 26.386,29.724 26.895,29.566 C27.402,29.41 28.026,29.176 28.77,28.863 C29.511,28.552 30.039,28.356 30.352,28.277 C32.696,27.653 34.609,28.2 36.093,29.918 C36.563,30.387 36.66,30.837 36.387,31.266 C36.113,31.696 35.702,31.833 35.156,31.676 C34.922,31.754 34.764,31.774 34.688,31.734 C34.609,31.696 34.433,31.734 34.16,31.852 C33.885,31.969 33.692,32.047 33.575,32.086 C33.457,32.126 33.261,32.243 32.989,32.438 C32.713,32.634 32.5,32.77 32.343,32.848 C32.186,32.926 31.934,33.102 31.581,33.375 C31.23,33.649 30.938,33.825 30.703,33.902 C29.766,34.606 28.418,35.114 26.66,35.426 C24.902,35.738 23.437,35.738 22.266,35.426 C23.203,36.129 23.945,36.638 24.492,36.949 C25.038,37.263 25.937,37.751 27.187,38.414 C28.437,39.079 29.511,39.509 30.41,39.703 C31.307,39.899 32.441,39.996 33.809,39.996 C35.175,39.996 36.425,39.762 37.559,39.293 C38.69,38.824 39.902,38.024 41.192,36.891 C42.48,35.759 43.71,34.333 44.883,32.613 C45.118,32.223 45.273,31.988 45.351,31.91 C45.507,31.91 45.311,32.965 44.765,35.074 C44.531,36.169 44.453,36.715 44.531,36.715 C45.859,35.777 46.776,33.98 47.285,31.324 C47.792,28.669 47.851,26.091 47.46,23.59 C48.398,23.981 49.061,24.723 49.453,25.816 L49.688,26.051 C50.156,24.567 50.429,22.634 50.508,20.25 C50.584,17.868 50.351,15.895 49.805,14.332 C50.819,14.645 51.756,15.661 52.618,17.379 C52.383,16.13 52.031,14.977 51.563,13.922 C51.093,12.867 50.567,11.97 49.98,11.227 C49.395,10.485 48.768,9.782 48.105,9.117 C47.441,8.454 46.758,7.907 46.055,7.477 C45.351,7.048 44.667,6.656 44.004,6.305 C43.339,5.953 42.714,5.68 42.129,5.484 C41.542,5.29 41.015,5.133 40.547,5.016 C40.078,4.898 39.726,4.821 39.493,4.781 C39.258,4.743 39.179,4.723 39.258,4.723 C41.209,4.177 43.202,3.902 45.235,3.902 C45,3.512 44.55,3.161 43.887,2.848 C43.222,2.536 42.499,2.262 41.718,2.027 C40.937,1.793 40.175,1.599 39.434,1.441 C38.69,1.286 37.811,1.09 36.797,0.855 L36.68,0.855 L36.914,0.855 C39.101,0.231 42.539,0.7 47.226,2.262 C48.944,2.809 50.508,3.805 51.914,5.25 C53.321,6.696 54.2,7.77 54.551,8.473 C54.902,9.176 55.156,9.762 55.313,10.23 L55.313,9.762 C55.389,9.372 55.331,8.766 55.137,7.945 C54.941,7.125 54.648,6.246 54.258,5.309 C54.334,5.309 54.452,5.367 54.61,5.484 C54.765,5.602 55.058,6.032 55.489,6.773 C55.918,7.517 56.406,8.59 56.953,9.996 C57.812,12.105 58.553,15.895 59.18,21.363 L59.883,16.91 C59.959,17.302 60,17.868 60,18.609"></path>
                    </g>
                    <g class="screen-browser" stroke-width="0"  >
                        <circle class="stroke-browser" ng-class="{svg_active: svg_PlayStop}"  cx="0" cy="0" r="9" />
                        <path class="icon-ie" ng-class="{svg_active: svg_PlayStop}"  d="M40.781,5.866 C45.78,7.898 49.765,11.179 52.734,15.71 C54.531,10.866 54.452,7.468 52.5,5.514 C50.391,3.328 46.483,3.445 40.781,5.866 L40.781,5.866 Z M42.07,25.905 C41.913,23.092 40.781,20.69 38.672,18.698 C36.562,16.706 34.081,15.71 31.23,15.71 C28.378,15.71 25.898,16.706 23.789,18.698 C21.68,20.69 20.546,23.092 20.391,25.905 L42.07,25.905 L42.07,25.905 Z M17.93,51.921 C12.695,48.718 9.023,44.227 6.914,38.443 C3.398,45.319 2.93,50.046 5.508,52.623 C7.773,54.889 11.913,54.654 17.93,51.921 L17.93,51.921 Z M20.391,32.702 L20.391,32.818 C20.391,34.693 20.819,36.491 21.68,38.21 C22.694,40.007 24.082,41.432 25.84,42.486 C27.598,43.541 29.55,44.068 31.699,44.068 C33.848,44.068 35.801,43.541 37.559,42.486 C39.316,41.432 40.702,40.007 41.719,38.21 L55.664,38.21 C53.866,43.289 50.742,47.448 46.289,50.69 C41.836,53.932 36.835,55.553 31.289,55.553 C27.148,55.553 23.242,54.654 19.57,52.858 C11.367,56.843 5.468,57.036 1.875,53.443 C0.625,52.273 0,50.319 0,47.585 C0,44.851 0.527,41.804 1.582,38.443 C2.637,35.086 4.395,31.394 6.855,27.37 C9.316,23.347 12.226,19.694 15.586,16.413 C17.538,14.382 18.789,13.131 19.336,12.663 C14.491,15.006 10.117,18.639 6.211,23.561 C7.617,17.859 10.644,13.171 15.293,9.499 C19.94,5.827 25.273,3.991 31.289,3.991 C31.914,3.991 32.538,4.031 33.164,4.108 C37.539,2.156 41.522,1.061 45.117,0.827 C48.71,0.592 51.249,1.178 52.734,2.585 C55.702,5.631 55.976,10.397 53.555,16.881 C55.819,20.866 56.953,25.163 56.953,29.772 C56.953,30.866 56.913,31.843 56.836,32.702 L20.391,32.702 L20.391,32.702 Z" ></path>
                    </g>
                    <g class="screen-browser" stroke-width="0"  >
                        <circle class="stroke-browser" ng-class="{svg_active: svg_PlayStop}"  cx="0" cy="0" r="9"  />
                        <path class="icon-safari" ng-class="{svg_active: svg_PlayStop}"  d="M33.281,34.102 C33.75,33.009 33.867,31.875 33.633,30.703 C33.554,30.392 33.437,30.04 33.281,29.648 L30.117,33.867 L25.898,37.031 C26.367,37.266 26.874,37.423 27.422,37.5 L28.125,37.5 C28.515,37.5 28.904,37.461 29.297,37.383 C29.921,37.227 30.507,36.993 31.055,36.68 C32.068,36.056 32.812,35.196 33.281,34.102 L33.281,34.102 Z M23.438,28.828 C22.576,30.157 22.304,31.563 22.617,33.047 C22.693,33.36 22.81,33.711 22.969,34.102 L26.133,29.883 L30.352,26.719 C29.883,26.484 29.373,26.329 28.828,26.25 L28.125,26.25 C27.732,26.25 27.343,26.29 26.953,26.367 C25.468,26.68 24.296,27.5 23.438,28.828 L23.438,28.828 Z M20.625,3.75 C20.936,3.281 21.346,2.988 21.855,2.871 C22.362,2.754 22.852,2.853 23.32,3.164 C23.865,2.774 24.1,2.344 24.023,1.875 C23.865,1.25 23.241,0.938 22.148,0.938 C21.914,0.938 21.68,0.978 21.445,1.055 C20.818,1.133 20.312,1.368 19.922,1.758 C19.529,2.149 19.374,2.501 19.453,2.813 C19.608,3.281 19.998,3.594 20.625,3.75 L20.625,3.75 Z M33.984,28.828 L33.984,28.945 L41.016,29.18 L34.688,32.109 C34.688,32.97 34.491,33.828 34.102,34.688 L36.797,37.5 L33.047,36.211 C32.499,36.837 31.834,37.344 31.055,37.734 L30.82,44.766 L27.891,38.438 C26.874,38.36 25.937,38.126 25.078,37.734 L13.594,46.406 L22.266,34.922 L22.266,34.805 L15.234,34.57 L21.563,31.641 C21.563,30.782 21.756,29.923 22.148,29.063 L19.453,26.25 L23.203,27.539 C23.748,26.915 24.413,26.407 25.195,26.016 L25.43,18.984 L28.359,25.313 C29.373,25.391 30.31,25.625 31.172,26.016 L42.656,17.344 L33.984,28.828 L33.984,28.828 Z M49.453,31.875 C49.453,30.938 49.374,30 49.219,29.063 L44.531,28.359 L48.633,25.898 C47.616,22.383 45.82,19.336 43.242,16.758 C39.023,12.618 33.984,10.547 28.125,10.547 C27.187,10.547 26.25,10.626 25.312,10.781 L24.609,15.469 L22.148,11.367 C18.633,12.383 15.586,14.18 13.008,16.758 C8.865,20.977 6.797,26.016 6.797,31.875 C6.797,32.813 6.873,33.75 7.031,34.688 L11.719,35.391 L7.617,37.852 C8.631,41.367 10.43,44.414 13.008,46.992 C17.227,51.134 22.266,53.203 28.125,53.203 C29.062,53.203 30,53.126 30.938,52.969 L31.641,48.281 L34.102,52.383 C37.617,51.368 40.664,49.57 43.242,46.992 C47.382,42.773 49.453,37.734 49.453,31.875 L49.453,31.875 Z M47.988,12.012 C53.496,17.52 56.25,24.141 56.25,31.875 C56.25,39.609 53.496,46.231 47.988,51.738 C42.48,57.246 35.859,60 28.125,60 C20.391,60 13.769,57.246 8.262,51.738 C2.754,46.231 0,39.609 0,31.875 C0,25.547 1.913,19.883 5.742,14.883 C9.568,9.884 14.452,6.524 20.391,4.805 L20.391,4.688 C19.374,4.453 18.788,3.907 18.633,3.047 C18.475,2.422 18.65,1.816 19.16,1.23 C19.667,0.645 20.35,0.274 21.211,0.117 C21.521,0.04 21.835,0 22.148,0 C23.71,0 24.609,0.586 24.844,1.758 C25.078,2.54 24.765,3.243 23.906,3.867 C23.906,3.946 23.944,4.024 24.023,4.102 C25.351,3.867 26.719,3.75 28.125,3.75 C35.859,3.75 42.48,6.504 47.988,12.012 L47.988,12.012 Z" ></path>
                    </g>
                </g>
            </g>
        </g>

        <g class="part-5"  ng-class="{svg_active: svg_PlayStop}" stroke-width="0" fill="transparent" fill-rule="evenodd">
            <circle  class="circle-ray"  ng-class="{svg_active: svg_PlayStop}" r="75" cx="0" cy="0"  clip-path="url(#clip-ray)" />
            <circle class="circle-9e" ng-class="{svg_active: svg_PlayStop}"  r="123" cx="0" cy="0"  stroke="black" stroke-width="2"   />
            <circle  class="circle-9"  ng-class="{svg_active: svg_PlayStop}" r="123" cx="0" cy="0"  />
            <circle  class="circle-9a"  ng-class="{svg_active: svg_PlayStop}" r="123" cx="0" cy="0"  />
            <circle  class="circle-9b"  ng-class="{svg_active: svg_PlayStop}" r="119" cx="0" cy="0"  />
            <circle  class="circle-9c"  ng-class="{svg_active: svg_PlayStop}" r="129" cx="0" cy="0"   />
            <circle  class="circle-9d"  ng-class="{svg_active: svg_PlayStop}" r="135" cx="0" cy="0"   />

        </g>
    </g>
    <g class="all-wrapper-text">
        <g class="group-text-wrapper-1"  ng-class="{svg_active: svg_PlayStop}" >
            <g class="group-text-1">
                <g class="icon-text" stroke-width="0" >
                    <g class="">
                        <path d="M14.1137905,11.2280515 C13.545286,8.47944853 16.2645586,6.863125 16.2645586,6.863125 C16.2645586,6.863125 15.2019437,5.39286765 13.4242568,5.014375 C11.6454595,4.63481618 10.7527297,5.10606618 9.86333108,5.46430147 C8.97393243,5.81827206 8.53200901,5.81827206 8.53200901,5.81827206 C7.24288063,5.81827206 6.30684685,4.51433824 3.86072297,5.10606618 C2.17297523,5.51867647 0.398619369,7.38448529 0.0777252252,9.61599265 C-0.243168919,11.8485662 0.450806306,14.693125 1.78212838,16.9001103 C3.11900225,19.1081618 4.47586261,19.9408456 5.43854505,19.9611029 C6.40677928,19.9866912 7.36946171,19.2990074 8.53200901,19.1326838 C9.69011486,18.9663603 10.4051869,19.5367647 11.545527,19.8448897 C12.682536,20.1530147 13.076714,19.8662132 14.3869392,18.8000368 C15.6971644,17.7295956 16.88525,14.6686029 16.88525,14.6686029 C16.88525,14.6686029 14.682295,13.9809191 14.1137905,11.2280515 L14.1137905,11.2280515 Z" ></path>
                        <path d="M11.5932725,3.23172794 C12.8557523,1.99922794 12.4260428,0.0875735294 12.4260428,0.0875735294 C12.4260428,0.0875735294 10.6572387,0.387169118 9.46804279,1.56955882 C8.28439865,2.75727941 8.47982207,4.63161765 8.47982207,4.63161765 C8.47982207,4.63161765 10.3319032,4.46422794 11.5932725,3.23172794 L11.5932725,3.23172794 Z" ></path>
                    </g>
                </g>
                <text x="0" y="0" fill="red">MAC OSX</text>
            </g>
            <g class="group-text-2">
                <g class="icon-text" stroke-width="0" >
                    <g class="">
                        <path d="M16.7532328,16.2071982 C16.21875,15.9932252 15.78125,15.6559279 15.8146552,15.0087387 C15.84375,14.3668198 15.3426724,13.9388739 15.3426724,13.9388739 C15.3426724,13.9388739 15.78125,12.5264414 15.3728448,11.3564414 C14.9644397,10.1917117 13.6174569,8.31865766 12.5818966,6.91044144 C11.5463362,5.49800901 12.4256466,3.86738739 11.4827586,1.78352252 C10.5398707,-0.303504505 8.09482759,-0.18018018 6.77693966,0.709441441 C5.45905172,1.59906306 5.86314655,3.8051982 5.92672414,4.85187387 C5.99030172,5.89327928 5.95581897,6.6384955 5.83405172,6.90622523 C5.71228448,7.17817117 4.86206897,8.16581982 4.29741379,8.99325225 C3.73383621,9.8249009 3.32543103,11.541955 2.91271552,12.2502793 C2.50862069,12.9543874 2.79094828,13.5963063 2.79094828,13.5963063 C2.79094828,13.5963063 2.50862069,13.6911712 2.28556034,14.1528468 C2.06681034,14.6092523 1.62931034,14.8274414 0.841594828,14.9760631 C0.0592672414,15.1331171 0.0592672414,15.6264144 0.247844828,16.1787387 C0.4375,16.730009 0.247844828,17.0388468 0.0290948276,17.742955 C-0.189655172,18.4470631 0.905172414,18.661036 1.97413793,18.7843604 C3.0387931,18.9087387 4.23491379,19.5833333 5.23599138,19.7024414 C6.2424569,19.8268198 6.55387931,19.0320631 6.55387931,19.0320631 C6.55387931,19.0320631 7.68642241,18.7843604 8.87715517,18.7559009 C10.0689655,18.7232252 11.1971983,18.9983333 11.1971983,18.9983333 C11.1971983,18.9983333 11.4159483,19.4884685 11.8243534,19.7024414 C12.2327586,19.9206306 13.112069,19.9501441 13.6756466,19.3693604 C14.2403017,18.7843604 15.7467672,18.0475766 16.5926724,17.586955 C17.4439655,17.1252793 17.2877155,16.4211712 16.7532328,16.2071982 L16.7532328,16.2071982 Z M9.41163793,2.67314414 C9.95043103,2.67314414 10.3846983,3.19595495 10.3846983,3.83892793 C10.3846983,4.29533333 10.1659483,4.6906036 9.84590517,4.88033333 C9.76508621,4.84765766 9.68103448,4.81076577 9.58836207,4.77281982 C9.78232759,4.67900901 9.91702586,4.43973874 9.91702586,4.16357658 C9.91702586,3.80203604 9.68965517,3.50479279 9.40409483,3.50479279 C9.12607759,3.50479279 8.89439655,3.80203604 8.89439655,4.16357658 C8.89439655,4.29533333 8.92780172,4.42709009 8.98275862,4.53038739 C8.81465517,4.46398198 8.66271552,4.40706306 8.54094828,4.36173874 C8.47737069,4.20468468 8.43965517,4.0276036 8.43965517,3.83892793 C8.43965517,3.19595495 8.87284483,2.67314414 9.41163793,2.67314414 L9.41163793,2.67314414 Z M9.34051724,5.1311982 C9.60991379,5.22184685 9.90840517,5.3904955 9.87931034,5.55914414 C9.84590517,5.73306306 9.70689655,5.73306306 9.34051724,5.95125225 C8.97844828,6.16522523 8.1875,6.64271171 7.93426724,6.67538739 C7.68211207,6.70806306 7.5387931,6.56892793 7.26939655,6.39922523 C7,6.22636036 6.49461207,5.82265766 6.62176724,5.60868468 C6.62176724,5.60868468 7.01724138,5.3124955 7.18965517,5.16071171 C7.36206897,5.00365766 7.80818966,4.63368468 8.07758621,4.68217117 C8.34267241,4.7274955 9.07112069,5.03633333 9.34051724,5.1311982 L9.34051724,5.1311982 Z M6.91594828,2.85865766 C7.34051724,2.85865766 7.68642241,3.35300901 7.68642241,3.96225225 C7.68642241,4.07292793 7.67349138,4.17622523 7.65301724,4.27952252 C7.54741379,4.3121982 7.44181034,4.36595495 7.34051724,4.45238739 C7.29094828,4.4934955 7.24461207,4.53038739 7.20258621,4.5714955 C7.26939655,4.44817117 7.29525862,4.27109009 7.26508621,4.08557658 C7.20689655,3.75671171 6.97952586,3.51322523 6.75646552,3.5459009 C6.53232759,3.58279279 6.3987069,3.88425225 6.45258621,4.21733333 C6.51185345,4.55463063 6.73491379,4.79811712 6.96228448,4.76122523 C6.97521552,4.75700901 6.98706897,4.75279279 7,4.74857658 C6.89116379,4.85187387 6.78987069,4.94252252 6.68426724,5.01630631 C6.37715517,4.87611712 6.14978448,4.4566036 6.14978448,3.96225225 C6.14978448,3.34879279 6.49030172,2.85865766 6.91594828,2.85865766 L6.91594828,2.85865766 Z M6.0862069,18.3648468 C5.99030172,18.8054414 5.45905172,19.1269279 5.45905172,19.1269279 C4.98383621,19.2702793 3.65840517,18.7105766 3.05603448,18.4639279 C2.45366379,18.2162252 0.921336207,18.1424414 0.724137931,17.9242523 C0.521551724,17.7018468 0.82112069,17.2117117 0.900862069,16.7468739 C0.971982759,16.2767658 0.748922414,15.9847928 0.825431034,15.6675225 C0.900862069,15.3513063 1.87715517,15.3513063 2.25215517,15.1289009 C2.62715517,14.9064955 2.70258621,14.2677387 3.00538793,14.0990901 C3.30387931,13.9262252 3.85560345,14.5396847 4.08297414,14.8854144 C4.30603448,15.2227117 5.16056034,16.6973333 5.50969828,17.0641441 C5.86314655,17.4341171 6.1875,17.9242523 6.0862069,18.3648468 L6.0862069,18.3648468 Z M11.6390086,14.0864414 C11.5463362,14.5186036 11.5463362,16.0838739 11.5463362,16.0838739 C11.5463362,16.0838739 10.5732759,17.4014414 9.06681034,17.6196306 C7.56034483,17.8336036 6.80603448,17.6776036 6.80603448,17.6776036 L5.96012931,16.730009 C5.96012931,16.730009 6.6174569,16.6351441 6.52478448,15.989009 C6.43211207,15.3470901 4.51616379,14.4574685 4.17133621,13.6584955 C3.82650862,12.8595225 4.10775862,11.5092793 4.55064655,10.8336306 C4.98814655,10.159036 5.27047414,8.68441441 5.70797414,8.19427928 C6.14978448,7.7051982 6.49030172,6.66273874 6.33512931,6.20211712 C6.33512931,6.20211712 7.27801724,7.30571171 7.93426724,7.12441441 C8.59159483,6.9389009 10.0689655,5.86481982 10.2877155,6.04927928 C10.5064655,6.23479279 12.387931,10.2823604 12.5775862,11.5714685 C12.7672414,12.8595225 12.4515086,13.844009 12.4515086,13.844009 C12.4515086,13.844009 11.731681,13.6584955 11.6390086,14.0864414 L11.6390086,14.0864414 Z M16.4547414,16.9808739 C16.1594828,17.2443874 14.5258621,17.8873604 14.0377155,18.3890901 C13.5538793,18.8876577 12.9181034,19.2955766 12.53125,19.1754144 C12.1400862,19.0563063 11.7984914,18.5334955 11.9665948,17.7682523 C12.1400862,17.0061712 12.2866379,16.1703063 12.2618534,15.6928198 C12.2359914,15.2153333 12.1400862,14.5723604 12.2618534,14.4774955 C12.3836207,14.3836847 12.5775862,14.429009 12.5775862,14.429009 C12.5775862,14.429009 12.4806034,15.3344414 13.0409483,15.5726577 C13.6002155,15.8119279 14.4040948,15.4788468 14.6487069,15.2395766 C14.8922414,15.0013604 15.0646552,14.6471982 15.0646552,14.6471982 C15.0646552,14.6471982 15.3092672,14.7663063 15.2844828,15.1447117 C15.2586207,15.5283874 15.4525862,16.0754414 15.8189655,16.2651712 C16.1853448,16.4538468 16.7446121,16.7173604 16.4547414,16.9808739 L16.4547414,16.9808739 Z" ></path>
                    </g>
                </g>
                <text x="0" y="0" fill="red">LINUX</text>
            </g>
            <g class="group-text-3">
                <g class="icon-text" stroke-width="0" >
                    <g class="">
                        <path d="M1.2125,6.56589147 L1.16354167,6.56589147 C0.520833333,6.56589147 0,7.09724031 0,7.74350388 L0,12.8703876 C0,13.5177054 0.520833333,14.0490543 1.16354167,14.0490543 L1.2125,14.0490543 C1.85520833,14.0490543 2.37604167,13.5177054 2.37604167,12.8703876 L2.37604167,7.74350388 C2.37604167,7.09724031 1.85104167,6.56589147 1.2125,6.56589147 L1.2125,6.56589147 Z" ></path>
                        <path d="M2.93333333,14.8471318 C2.93333333,15.4448992 3.41354167,15.9266977 4.00416667,15.9266977 L5.146875,15.9266977 L5.146875,18.6983566 C5.146875,19.3488372 5.66770833,19.875969 6.31145833,19.875969 L6.359375,19.875969 C7.003125,19.875969 7.52395833,19.3446202 7.52395833,18.6983566 L7.52395833,15.9266977 L9.12291667,15.9266977 L9.12291667,18.6983566 C9.12291667,19.3488372 9.64791667,19.875969 10.2864583,19.875969 L10.3354167,19.875969 C10.978125,19.875969 11.4989583,19.3446202 11.4989583,18.6983566 L11.4989583,15.9266977 L12.6427083,15.9266977 C13.228125,15.9266977 13.7125,15.4448992 13.7125,14.8471318 L13.7125,6.75565891 L2.93333333,6.75565891 L2.93333333,14.8471318 Z" ></path>
                        <path d="M11.00625,1.84595349 L11.9145833,0.425860465 C11.9708333,0.339410853 11.946875,0.216062016 11.8572917,0.158077519 C11.7677083,0.095875969 11.65,0.121178295 11.5927083,0.216062016 L10.6489583,1.68148837 C9.94479167,1.38945736 9.15520833,1.22499225 8.325,1.22499225 C7.490625,1.22499225 6.70208333,1.38945736 5.99791667,1.68148837 L5.05729167,0.216062016 C5.00104167,0.121178295 4.87916667,0.095875969 4.78958333,0.158077519 C4.7,0.216062016 4.675,0.339410853 4.73229167,0.425860465 L5.63958333,1.84595349 C4.00416667,2.65773643 2.896875,4.1895814 2.896875,5.94387597 C2.896875,6.05141085 2.90520833,6.15789147 2.91354167,6.26542636 L13.7333333,6.26542636 C13.740625,6.15789147 13.7489583,6.05141085 13.7489583,5.94387597 C13.7489583,4.1895814 12.6427083,2.65773643 11.00625,1.84595349 L11.00625,1.84595349 Z M5.81458333,4.38356589 C5.52604167,4.38356589 5.29375,4.14846512 5.29375,3.85643411 C5.29375,3.56334884 5.52604167,3.33351938 5.81458333,3.33351938 C6.103125,3.33351938 6.33541667,3.56334884 6.33541667,3.85643411 C6.33541667,4.14846512 6.103125,4.38356589 5.81458333,4.38356589 L5.81458333,4.38356589 Z M10.83125,4.38356589 C10.5427083,4.38356589 10.3104167,4.14846512 10.3104167,3.85643411 C10.3104167,3.56334884 10.5427083,3.33351938 10.83125,3.33351938 C11.1208333,3.33351938 11.3520833,3.56334884 11.3520833,3.85643411 C11.3520833,4.14846512 11.1208333,4.38356589 10.83125,4.38356589 L10.83125,4.38356589 Z" ></path>
                        <path d="M15.4822917,6.56589147 L15.4333333,6.56589147 C14.790625,6.56589147 14.2697917,7.09724031 14.2697917,7.74350388 L14.2697917,12.8703876 C14.2697917,13.5177054 14.7947917,14.0490543 15.4333333,14.0490543 L15.4822917,14.0490543 C16.125,14.0490543 16.6458333,13.5177054 16.6458333,12.8703876 L16.6458333,7.74350388 C16.6458333,7.09724031 16.121875,6.56589147 15.4822917,6.56589147 L15.4822917,6.56589147 Z"></path>
                    </g>
                </g>
                <text x="0" y="0" fill="red">ANDROID</text>
            </g>
            <g class="group-text-4">
                <g class="icon-text" stroke-width="0" >
                    <g class="">
                        <path d="M4.20763636,0.896342466 C4.20763636,0.896342466 8.18327273,-1.18126712 11.5844848,1.32180822 L9.68121212,7.60470548 C9.68121212,7.60470548 7.5510303,6.19521918 5.96933333,6.34717123 C4.38763636,6.49900685 2.30448485,7.22663014 2.30448485,7.22663014 L4.20763636,0.896342466" ></path>
                        <path d="M1.96909091,8.33372603 C1.96909091,8.33372603 4.10290909,7.38032877 5.87442424,7.50189041 C7.64606061,7.62345205 9.06060606,8.53935616 9.36569697,8.74976027 L7.44254545,15.0980959 C7.44254545,15.0980959 5.30509091,13.7619658 3.78654545,13.8835274 C2.26812121,14.005089 0.951878788,14.2272534 0.0756363636,14.6631986 L1.96909091,8.33372603" ></path>
                        <path d="M10.3615758,9.36420548 C10.3615758,9.36420548 12.3912727,10.6319863 13.7197576,10.6015959 C15.0287273,10.5716712 15.934303,10.4723493 17.7101818,9.80376027 C17.7241212,9.79863699 17.7601212,9.77383562 17.7483636,9.78105479 C17.7101818,9.80376027 15.8453333,16.0724521 15.8453333,16.0724521 C15.8453333,16.0724521 13.7515152,17.0135068 11.8533333,16.9224521 C9.95539394,16.8312808 8.81551515,15.7885753 8.468,15.6565342 L10.3615758,9.36420548" ></path>
                        <path d="M12.5909091,1.98469178 L10.6829091,8.23114384 C10.6829091,8.23114384 12.2330909,9.68988356 14.4158788,9.56832192 C16.5985455,9.44676027 17.7849697,8.78585616 18.0734545,8.69270548 L19.9676364,2.39106164 C19.9676364,2.39106164 17.4527273,3.39941781 15.8076364,3.21707534 C14.1627879,3.03484932 13.1381818,2.36288356 12.5909091,1.98469178" ></path>
                    </g>
                </g>
                <text x="0" y="0" fill="red">WINDOWS</text>
            </g>
        </g>


        <g class="group-text-wrapper-2"  ng-class="{svg_active: svg_PlayStop}" stroke-width="0" fill="transparent">


            <g class="group-text-1">
                <g class="icon-text" stroke-width="0" fill="transparent" >
                    <path d="M86.0454545,79.625 L125,79.625 L125,0 L0,0 L0,79.625 L40,79.625 L40,87.5123115 L86.0454545,87.5123115 L86.0454545,79.625 Z M7.38636364,6.25625 L118.181818,6.25625 L118.181818,72.9876885 L7.38636364,72.9876885 L7.38636364,6.25625 Z M45.4545455,56.875 L45.4545455,22.75 L79.5454545,39.8125 L45.4545455,56.875 Z" id="tv-box"></path>
                </g>
                <text x="0" y="0" fill="red">TV</text>
            </g>


            <g class="group-text-2" stroke-width="0" fill="transparent">
                <g class="icon-text" stroke-width="0" fill="transparent" >
                    <path fill-rule="evenodd" d="M0,9.00213944 C0,4.03039511 4.0349711,0 9.00973427,0 L110.2101,0 C115.186039,0 119.219835,4.02611559 119.219835,9.00213944 L119.219835,72.7479519 C119.219835,77.7196962 115.184864,81.7500913 110.2101,81.7500913 L9.00973427,81.7500913 C4.03379543,81.7500913 0,77.7239758 0,72.7479519 L0,9.00213944 Z M6,11.0002024 C6,8.23866685 8.23484707,6 10.9995042,6 L108.000496,6 C110.761646,6 113,8.24311338 113,11.0002024 L113,68.9997976 C113,71.7613332 110.765153,74 108.000496,74 L10.9995042,74 C8.23835425,74 6,71.7568866 6,68.9997976 L6,11.0002024 Z M44.2428702,81.8724495 C44.2428702,81.8724495 43.6099799,87.2385128 43.1419764,88.7536902 C42.7208291,90.1171691 41.6891191,93.6432278 39.8375039,94.8013938 C34.4610353,98.1643188 39.1391741,99.5615638 39.1391741,99.5615638 L57.5476318,99.5139118 L57.5476318,81.7500913 L44.2428702,81.8724495 Z M70.8523934,81.8724495 C70.8523934,81.8724495 71.4852838,87.2385128 71.9532873,88.7536902 C72.3744345,90.1171691 73.4061446,93.6432278 75.2577597,94.8013938 C80.6342283,98.1643188 75.9560896,99.5615638 75.9560896,99.5615638 L57.5476318,99.5139118 L57.5476318,81.7500913 L70.8523934,81.8724495 Z" sketch:type="MSShapeGroup">

                    </path>
                </g>
                <text x="0" y="0" fill="red">PC / Laptop</text>
            </g>


            <g class="group-text-3">
                <g class="icon-text" stroke-width="0" fill="transparent" >
                    <path fill-rule="evenodd" d="M0,8.99461556 C0,4.02702656 4.03243067,0 8.99787322,0 L67.0021268,0 C71.9715149,0 76,4.02729807 76,8.99461556 L76,91.3655285 C76,96.3331175 71.9675693,100.360144 67.0021268,100.360144 L8.99787322,100.360144 C4.02848506,100.360144 0,96.332846 0,91.3655285 L0,8.99461556 Z M7.87804878,7.79051347 L67.6585366,7.79051347 L67.6585366,87.5287101 L7.87804878,87.5287101 L7.87804878,7.79051347 Z M38.695122,98.5270821 C40.8705851,98.5270821 42.6341463,96.7831162 42.6341463,94.6318253 C42.6341463,92.4805344 40.8705851,90.7365686 38.695122,90.7365686 C36.5196589,90.7365686 34.7560976,92.4805344 34.7560976,94.6318253 C34.7560976,96.7831162 36.5196589,98.5270821 38.695122,98.5270821 Z" id="Rectangle-6" ></path>
                </g>
                <text x="0" y="0" fill="red">Tablet</text>
            </g>

            <g class="group-text-4">
                <g class="icon-text" stroke-width="0" >
                    <g class="" stroke-width="0"   >
                        <path fill-rule="evenodd" d="M0,5.99306484 C0,2.68318653 2.6784881,0 5.99580311,0 L49.5375302,0 C52.8489208,0 55.5333333,2.68768095 55.5333333,5.99306484 L55.5333333,94.0069352 C55.5333333,97.3168135 52.8548452,100 49.5375302,100 L5.99580311,100 C2.68441249,100 0,97.312319 0,94.0069352 L0,5.99306484 Z M22.2133333,10.443038 C22.2133333,9.91871701 22.631878,9.49367089 23.1558244,9.49367089 L33.0308423,9.49367089 C33.5513657,9.49367089 33.9733333,9.91506154 33.9733333,10.443038 C33.9733333,10.9673589 33.5547887,11.3924051 33.0308423,11.3924051 L23.1558244,11.3924051 C22.6353009,11.3924051 22.2133333,10.9710144 22.2133333,10.443038 Z M27.7666667,95.5696203 C30.1120359,95.5696203 32.0133333,93.7277537 32.0133333,91.4556962 C32.0133333,89.1836387 30.1120359,87.3417722 27.7666667,87.3417722 C25.4212974,87.3417722 23.52,89.1836387 23.52,91.4556962 C23.52,93.7277537 25.4212974,95.5696203 27.7666667,95.5696203 Z M5.22666667,16.4556962 L50.3066667,16.4556962 L50.3066667,84.1772152 L5.22666667,84.1772152 L5.22666667,16.4556962 Z" sketch:type="MSShapeGroup"></path>
                    </g>
                </g>
                <text x="0" y="0" fill="red">Mobile</text>
            </g>

            <g class="group-text-5">
                <g class="icon-text" stroke-width="0" fill="transparent" >
                    <path d="M44.7151233,57.1423125 C41.5960963,57.1423125 39.0674679,54.6451055 39.0674679,51.5641875 C39.0674679,48.483668 41.5960963,45.9862617 44.7151233,45.9862617 C47.833951,45.9862617 50.3625794,48.483668 50.3625794,51.5641875 C50.3625794,54.6451055 47.833951,57.1423125 44.7151233,57.1423125 M35.8119037,71.6189414 C32.6928767,71.6189414 30.1642483,69.1217344 30.1642483,66.0408164 C30.1642483,62.9602969 32.6928767,60.4628906 35.8119037,60.4628906 C38.9307314,60.4628906 41.4593598,62.9602969 41.4593598,66.0408164 C41.4593598,69.1217344 38.9307314,71.6189414 35.8119037,71.6189414 M21.5799476,51.0661406 C21.5799476,47.563875 24.454603,44.7246094 28.0007821,44.7246094 C31.5467618,44.7246094 34.4212179,47.563875 34.4212179,51.0661406 C34.4212179,54.5688047 31.5467618,57.4078711 28.0007821,57.4078711 C24.454603,57.4078711 21.5799476,54.5688047 21.5799476,51.0661406 M19.9989071,71.6189414 C16.8796807,71.6189414 14.3512517,69.1217344 14.3512517,66.0408164 C14.3512517,62.9602969 16.8796807,60.4628906 19.9989071,60.4628906 C23.1177348,60.4628906 25.6463632,62.9602969 25.6463632,66.0408164 C25.6463632,69.1217344 23.1177348,71.6189414 19.9989071,71.6189414 M5.58098142,51.5641875 C5.58098142,48.483668 8.1096098,45.9862617 11.2286368,45.9862617 C14.3474645,45.9862617 16.8760929,48.483668 16.8760929,51.5641875 C16.8760929,54.6451055 14.3474645,57.1423125 11.2286368,57.1423125 C8.1096098,57.1423125 5.58098142,54.6451055 5.58098142,51.5641875 M19.9987078,30.3143203 C23.1177348,30.3143203 25.6463632,32.8119258 25.6463632,35.8924453 C25.6463632,38.9731641 23.1177348,41.4705703 19.9987078,41.4705703 C16.8796807,41.4705703 14.3512517,38.9731641 14.3512517,35.8924453 C14.3512517,32.8119258 16.8796807,30.3143203 19.9987078,30.3143203 M35.8119037,30.3143203 C38.9307314,30.3143203 41.4593598,32.8119258 41.4593598,35.8924453 C41.4593598,38.9731641 38.9307314,41.4705703 35.8119037,41.4705703 C32.6928767,41.4705703 30.1642483,38.9731641 30.1642483,35.8924453 C30.1642483,32.8119258 32.6928767,30.3143203 35.8119037,30.3143203 M57.2725557,33.1033828 L55.9436605,33.1033828 L55.9436605,29.1855469 C55.9436605,23.7942891 51.5708834,19.4238281 46.1767686,19.4238281 L9.76699155,19.4238281 C4.37267736,19.4238281 9.96621622e-05,23.7942891 9.96621622e-05,29.1855469 L9.96621622e-05,73.2792305 C9.96621622e-05,78.6704883 4.37267736,83.0409492 9.76699155,83.0409492 L46.1767686,83.0409492 C51.5708834,83.0409492 55.9436605,78.6704883 55.9436605,73.2792305 L55.9436605,69.7596328 L58.0032787,69.7596328 C58.1868564,69.7596328 58.3355524,69.6110156 58.3355524,69.4277344 L58.3355524,53.8886719 C58.3355524,53.7051914 58.1868564,53.5565742 58.0032787,53.5565742 L55.9436605,53.5565742 L55.9436605,44.7246094 L57.2725557,44.7246094 C58.226522,44.7246094 58.9999003,43.9516406 58.9999003,42.9979805 L58.9999003,34.8298125 C58.9999003,33.8763516 58.226522,33.1033828 57.2725557,33.1033828 Z M10.4978142,98.4806016 C10.4978142,100.424379 12.0744696,102 14.019277,102 L41.7915338,102 C43.7363412,102 45.3129966,100.424379 45.3129966,98.4806016 L46.9075912,87.0916641 C46.9075912,86.5414219 46.4613041,86.0955703 45.9109696,86.0955703 L9.76669257,86.0955703 C9.21635811,86.0955703 8.77007095,86.5414219 8.77007095,87.0916641 L10.4978142,98.4806016 Z M10.4978142,3.51939844 C10.4978142,1.57562109 12.0744696,0 14.019277,0 L41.7915338,0 C43.7363412,0 45.3129966,1.57562109 45.3129966,3.51939844 L46.9075912,14.9083359 C46.9075912,15.4585781 46.4613041,15.9044297 45.9109696,15.9044297 L9.76669257,15.9044297 C9.21635811,15.9044297 8.77007095,15.4585781 8.77007095,14.9083359 L10.4978142,3.51939844 Z" id="Fill-1" sketch:type="MSShapeGroup"></path>
                </g>
                <text x="0" y="0" fill="red">Smart Watch</text>
            </g>
        </g>


        <g class="group-text-wrapper-3"  ng-class="{svg_active: svg_PlayStop}" stroke-width="0" fill="transparent">
            <g class="group-text-1">
                <g class="icon-text" stroke-width="0" fill="transparent" >
                    <g class="">
                        <path d="M34.1816316,18.6678 C33.9722632,16.4889 33.5526316,14.3622 32.9236316,12.2868 C32.2946316,10.2141 31.3327895,8.6139 30.0398947,7.488 C28.7461053,6.3639 27.1212632,5.8005 25.1644737,5.8005 C23.2067895,5.8005 21.5998421,6.3459 20.3409474,7.4358 C19.0829474,8.5266 18.156,10.125 17.5627895,12.2346 C16.9686842,14.3442 16.5669474,16.4529 16.3566842,18.5625 C16.1473158,20.6721 16.0426316,23.2389 16.0426316,26.262 C16.0426316,28.1601 16.0775263,29.7594 16.1473158,31.0608 C16.2162105,32.3622 16.3396842,33.9444 16.5141579,35.8065 C16.6877368,37.6695 16.9686842,39.2346 17.3534211,40.5 C17.7363684,41.7654 18.2606842,43.0146 18.9254737,44.244 C19.5893684,45.4752 20.4465263,46.4058 21.4942632,47.0394 C22.5428947,47.6721 23.766,47.988 25.1644737,47.988 C26.5620526,47.988 27.8021579,47.6721 28.8865789,47.0394 C29.9692105,46.4058 30.8433684,45.4752 31.5081579,44.244 C32.1711579,43.0146 32.7133684,41.7654 33.133,40.5 C33.5526316,39.2346 33.8675789,37.6695 34.0769474,35.8065 C34.2863158,33.9444 34.408,32.3442 34.4437895,31.0077 C34.4777895,29.673 34.4965789,28.0908 34.4965789,26.262 C34.4965789,23.3793 34.391,20.8485 34.1816316,18.6678 L34.1816316,18.6678 L34.1816316,18.6678 Z M43.3562632,7.3827 C48.144,12.3048 50.5383158,18.7731 50.5383158,26.7894 C50.5383158,34.1028 48.144,40.4658 43.3562632,45.8793 C38.5667368,51.2919 32.504,54 25.1644737,54 C17.8938421,54 11.883,51.2919 7.13015789,45.8793 C2.37552632,40.4658 0,34.1028 0,26.7894 C0,18.7731 2.34152632,12.3048 7.02547368,7.3827 C11.7076316,2.4615 17.7551579,0 25.1644737,0 C32.504,0 38.5667368,2.4615 43.3562632,7.3827 L43.3562632,7.3827 L43.3562632,7.3827 Z" id="Fill-1"></path>
                    </g>
                </g>
                <text x="0" y="0" fill="red">OPERA</text>
            </g>
            <g class="group-text-2" stroke-width="0" fill="transparent">
                <g class="icon-text" stroke-width="0" fill="transparent" >
                    <g class="">
                        <path d="M40.781,18.984 L57.891,18.984 C59.297,22.5 60,26.173 60,30 C60,38.203 57.108,45.234 51.328,51.094 C45.546,56.953 38.555,59.921 30.352,60 L42.656,38.789 C44.452,36.134 45.352,33.204 45.352,30 C45.352,25.704 43.828,22.031 40.781,18.984 L40.781,18.984 Z M22.324,37.676 C20.175,35.528 19.102,32.97 19.102,30 C19.102,27.032 20.175,24.474 22.324,22.324 C24.472,20.176 27.03,19.102 30,19.102 C32.968,19.102 35.526,20.176 37.676,22.324 C39.823,24.474 40.898,27.032 40.898,30 C40.898,32.97 39.823,35.528 37.676,37.676 C35.526,39.825 32.968,40.898 30,40.898 C27.03,40.898 24.472,39.825 22.324,37.676 L22.324,37.676 Z M15.117,26.133 L6.563,11.25 C9.375,7.734 12.812,4.98 16.875,2.988 C20.937,0.996 25.312,0 30,0 C35.391,0 40.371,1.329 44.941,3.984 C49.512,6.641 53.124,10.235 55.781,14.766 L31.289,14.766 C30.898,14.688 30.469,14.648 30,14.648 C26.484,14.648 23.339,15.723 20.566,17.871 C17.792,20.021 15.976,22.774 15.117,26.133 L15.117,26.133 Z M34.102,44.766 L25.547,59.648 C18.281,58.554 12.206,55.216 7.324,49.629 C2.441,44.044 0,37.5 0,30 C0,24.767 1.289,19.845 3.867,15.234 L16.055,36.563 C17.304,39.141 19.179,41.25 21.68,42.891 C24.179,44.531 26.953,45.352 30,45.352 C31.406,45.352 32.772,45.157 34.102,44.766 L34.102,44.766 Z"></path>
                    </g>
                </g>
                <text x="0" y="0" fill="red">CHROME</text>
            </g>
            <g class="group-text-3">
                <g class="icon-text" stroke-width="0" fill="transparent" >
                    <g class="">
                        <path d="M60,18.609 C60,19.353 59.942,20.797 59.825,22.945 C59.707,25.095 59.453,27.204 59.063,29.273 C58.671,31.345 57.95,33.668 56.895,36.246 C55.839,38.824 54.551,41.149 53.027,43.219 C51.504,45.289 49.414,47.243 46.758,49.078 C44.101,50.914 41.093,52.224 37.735,53.004 C35.936,53.473 34.101,53.746 32.226,53.824 C32.148,53.824 31.993,53.862 31.758,53.941 C30.194,54.019 28.632,54.019 27.07,53.941 C17.382,53.161 10,48.395 4.922,39.644 C2.578,35.504 1.249,31.559 0.938,27.809 C0.703,28.903 0.546,29.841 0.469,30.621 C0.234,26.168 0.586,22.535 1.523,19.723 C0.82,20.894 0.312,21.989 0,23.004 C0.625,19.488 1.445,16.716 2.461,14.684 C2.538,14.215 3.007,13.356 3.867,12.105 L3.867,11.754 C3.71,9.567 3.926,7.594 4.512,5.836 C5.098,4.078 5.585,2.985 5.977,2.555 C6.367,2.126 6.68,1.793 6.914,1.559 C6.991,3.434 7.969,5.231 9.844,6.949 C10.313,7.028 10.741,7.066 11.133,7.066 C13.085,6.676 15.117,6.715 17.227,7.184 C18.476,5.622 20.391,4.567 22.969,4.02 L25.195,3.902 C22.929,5.231 21.562,7.145 21.094,9.645 C21.953,11.442 23.086,12.34 24.492,12.34 L27.07,12.34 C28.398,12.34 29.101,12.457 29.18,12.691 L29.18,12.926 C29.257,13.004 29.257,13.122 29.18,13.277 L29.18,13.512 C29.101,14.293 28.828,14.879 28.359,15.269 C28.281,15.269 28.242,15.29 28.242,15.328 C28.242,15.368 28.202,15.387 28.125,15.387 C28.125,15.465 27.773,15.7 27.07,16.09 C26.133,16.716 25.39,17.223 24.844,17.613 C23.828,18.239 23.32,18.668 23.32,18.902 L23.32,19.019 L23.203,19.019 C23.437,19.488 23.593,20.074 23.672,20.777 C23.828,21.48 23.866,21.911 23.789,22.066 L23.789,23.121 C22.852,22.652 21.953,22.341 21.094,22.184 C19.999,22.652 19.375,23.161 19.219,23.707 C19.14,24.02 19.062,24.333 18.984,24.644 C18.984,26.129 20.039,27.497 22.148,28.746 C23.007,29.293 23.886,29.606 24.785,29.684 C25.683,29.763 26.386,29.724 26.895,29.566 C27.402,29.41 28.026,29.176 28.77,28.863 C29.511,28.552 30.039,28.356 30.352,28.277 C32.696,27.653 34.609,28.2 36.093,29.918 C36.563,30.387 36.66,30.837 36.387,31.266 C36.113,31.696 35.702,31.833 35.156,31.676 C34.922,31.754 34.764,31.774 34.688,31.734 C34.609,31.696 34.433,31.734 34.16,31.852 C33.885,31.969 33.692,32.047 33.575,32.086 C33.457,32.126 33.261,32.243 32.989,32.438 C32.713,32.634 32.5,32.77 32.343,32.848 C32.186,32.926 31.934,33.102 31.581,33.375 C31.23,33.649 30.938,33.825 30.703,33.902 C29.766,34.606 28.418,35.114 26.66,35.426 C24.902,35.738 23.437,35.738 22.266,35.426 C23.203,36.129 23.945,36.638 24.492,36.949 C25.038,37.263 25.937,37.751 27.187,38.414 C28.437,39.079 29.511,39.509 30.41,39.703 C31.307,39.899 32.441,39.996 33.809,39.996 C35.175,39.996 36.425,39.762 37.559,39.293 C38.69,38.824 39.902,38.024 41.192,36.891 C42.48,35.759 43.71,34.333 44.883,32.613 C45.118,32.223 45.273,31.988 45.351,31.91 C45.507,31.91 45.311,32.965 44.765,35.074 C44.531,36.169 44.453,36.715 44.531,36.715 C45.859,35.777 46.776,33.98 47.285,31.324 C47.792,28.669 47.851,26.091 47.46,23.59 C48.398,23.981 49.061,24.723 49.453,25.816 L49.688,26.051 C50.156,24.567 50.429,22.634 50.508,20.25 C50.584,17.868 50.351,15.895 49.805,14.332 C50.819,14.645 51.756,15.661 52.618,17.379 C52.383,16.13 52.031,14.977 51.563,13.922 C51.093,12.867 50.567,11.97 49.98,11.227 C49.395,10.485 48.768,9.782 48.105,9.117 C47.441,8.454 46.758,7.907 46.055,7.477 C45.351,7.048 44.667,6.656 44.004,6.305 C43.339,5.953 42.714,5.68 42.129,5.484 C41.542,5.29 41.015,5.133 40.547,5.016 C40.078,4.898 39.726,4.821 39.493,4.781 C39.258,4.743 39.179,4.723 39.258,4.723 C41.209,4.177 43.202,3.902 45.235,3.902 C45,3.512 44.55,3.161 43.887,2.848 C43.222,2.536 42.499,2.262 41.718,2.027 C40.937,1.793 40.175,1.599 39.434,1.441 C38.69,1.286 37.811,1.09 36.797,0.855 L36.68,0.855 L36.914,0.855 C39.101,0.231 42.539,0.7 47.226,2.262 C48.944,2.809 50.508,3.805 51.914,5.25 C53.321,6.696 54.2,7.77 54.551,8.473 C54.902,9.176 55.156,9.762 55.313,10.23 L55.313,9.762 C55.389,9.372 55.331,8.766 55.137,7.945 C54.941,7.125 54.648,6.246 54.258,5.309 C54.334,5.309 54.452,5.367 54.61,5.484 C54.765,5.602 55.058,6.032 55.489,6.773 C55.918,7.517 56.406,8.59 56.953,9.996 C57.812,12.105 58.553,15.895 59.18,21.363 L59.883,16.91 C59.959,17.302 60,17.868 60,18.609"></path>
                    </g>
                </g>
                <text x="0" y="0" fill="red">FIREFOX</text>
            </g>
            <g class="group-text-4">
                <g class="icon-text" stroke-width="0" fill="transparent" >
                    <g class="">
                        <path d="M33.281,34.102 C33.75,33.009 33.867,31.875 33.633,30.703 C33.554,30.392 33.437,30.04 33.281,29.648 L30.117,33.867 L25.898,37.031 C26.367,37.266 26.874,37.423 27.422,37.5 L28.125,37.5 C28.515,37.5 28.904,37.461 29.297,37.383 C29.921,37.227 30.507,36.993 31.055,36.68 C32.068,36.056 32.812,35.196 33.281,34.102 L33.281,34.102 Z M23.438,28.828 C22.576,30.157 22.304,31.563 22.617,33.047 C22.693,33.36 22.81,33.711 22.969,34.102 L26.133,29.883 L30.352,26.719 C29.883,26.484 29.373,26.329 28.828,26.25 L28.125,26.25 C27.732,26.25 27.343,26.29 26.953,26.367 C25.468,26.68 24.296,27.5 23.438,28.828 L23.438,28.828 Z M20.625,3.75 C20.936,3.281 21.346,2.988 21.855,2.871 C22.362,2.754 22.852,2.853 23.32,3.164 C23.865,2.774 24.1,2.344 24.023,1.875 C23.865,1.25 23.241,0.938 22.148,0.938 C21.914,0.938 21.68,0.978 21.445,1.055 C20.818,1.133 20.312,1.368 19.922,1.758 C19.529,2.149 19.374,2.501 19.453,2.813 C19.608,3.281 19.998,3.594 20.625,3.75 L20.625,3.75 Z M33.984,28.828 L33.984,28.945 L41.016,29.18 L34.688,32.109 C34.688,32.97 34.491,33.828 34.102,34.688 L36.797,37.5 L33.047,36.211 C32.499,36.837 31.834,37.344 31.055,37.734 L30.82,44.766 L27.891,38.438 C26.874,38.36 25.937,38.126 25.078,37.734 L13.594,46.406 L22.266,34.922 L22.266,34.805 L15.234,34.57 L21.563,31.641 C21.563,30.782 21.756,29.923 22.148,29.063 L19.453,26.25 L23.203,27.539 C23.748,26.915 24.413,26.407 25.195,26.016 L25.43,18.984 L28.359,25.313 C29.373,25.391 30.31,25.625 31.172,26.016 L42.656,17.344 L33.984,28.828 L33.984,28.828 Z M49.453,31.875 C49.453,30.938 49.374,30 49.219,29.063 L44.531,28.359 L48.633,25.898 C47.616,22.383 45.82,19.336 43.242,16.758 C39.023,12.618 33.984,10.547 28.125,10.547 C27.187,10.547 26.25,10.626 25.312,10.781 L24.609,15.469 L22.148,11.367 C18.633,12.383 15.586,14.18 13.008,16.758 C8.865,20.977 6.797,26.016 6.797,31.875 C6.797,32.813 6.873,33.75 7.031,34.688 L11.719,35.391 L7.617,37.852 C8.631,41.367 10.43,44.414 13.008,46.992 C17.227,51.134 22.266,53.203 28.125,53.203 C29.062,53.203 30,53.126 30.938,52.969 L31.641,48.281 L34.102,52.383 C37.617,51.368 40.664,49.57 43.242,46.992 C47.382,42.773 49.453,37.734 49.453,31.875 L49.453,31.875 Z M47.988,12.012 C53.496,17.52 56.25,24.141 56.25,31.875 C56.25,39.609 53.496,46.231 47.988,51.738 C42.48,57.246 35.859,60 28.125,60 C20.391,60 13.769,57.246 8.262,51.738 C2.754,46.231 0,39.609 0,31.875 C0,25.547 1.913,19.883 5.742,14.883 C9.568,9.884 14.452,6.524 20.391,4.805 L20.391,4.688 C19.374,4.453 18.788,3.907 18.633,3.047 C18.475,2.422 18.65,1.816 19.16,1.23 C19.667,0.645 20.35,0.274 21.211,0.117 C21.521,0.04 21.835,0 22.148,0 C23.71,0 24.609,0.586 24.844,1.758 C25.078,2.54 24.765,3.243 23.906,3.867 C23.906,3.946 23.944,4.024 24.023,4.102 C25.351,3.867 26.719,3.75 28.125,3.75 C35.859,3.75 42.48,6.504 47.988,12.012 L47.988,12.012 Z" >

                        </path>
                    </g>
                </g>
                <text x="0" y="0" fill="red">SAFARI</text>
            </g>
            <g class="group-text-5">
                <g class="icon-text" stroke-width="0" >
                    <g class="" stroke-width="0"   >
                        <path d="M40.781,5.866 C45.78,7.898 49.765,11.179 52.734,15.71 C54.531,10.866 54.452,7.468 52.5,5.514 C50.391,3.328 46.483,3.445 40.781,5.866 L40.781,5.866 Z M42.07,25.905 C41.913,23.092 40.781,20.69 38.672,18.698 C36.562,16.706 34.081,15.71 31.23,15.71 C28.378,15.71 25.898,16.706 23.789,18.698 C21.68,20.69 20.546,23.092 20.391,25.905 L42.07,25.905 L42.07,25.905 Z M17.93,51.921 C12.695,48.718 9.023,44.227 6.914,38.443 C3.398,45.319 2.93,50.046 5.508,52.623 C7.773,54.889 11.913,54.654 17.93,51.921 L17.93,51.921 Z M20.391,32.702 L20.391,32.818 C20.391,34.693 20.819,36.491 21.68,38.21 C22.694,40.007 24.082,41.432 25.84,42.486 C27.598,43.541 29.55,44.068 31.699,44.068 C33.848,44.068 35.801,43.541 37.559,42.486 C39.316,41.432 40.702,40.007 41.719,38.21 L55.664,38.21 C53.866,43.289 50.742,47.448 46.289,50.69 C41.836,53.932 36.835,55.553 31.289,55.553 C27.148,55.553 23.242,54.654 19.57,52.858 C11.367,56.843 5.468,57.036 1.875,53.443 C0.625,52.273 0,50.319 0,47.585 C0,44.851 0.527,41.804 1.582,38.443 C2.637,35.086 4.395,31.394 6.855,27.37 C9.316,23.347 12.226,19.694 15.586,16.413 C17.538,14.382 18.789,13.131 19.336,12.663 C14.491,15.006 10.117,18.639 6.211,23.561 C7.617,17.859 10.644,13.171 15.293,9.499 C19.94,5.827 25.273,3.991 31.289,3.991 C31.914,3.991 32.538,4.031 33.164,4.108 C37.539,2.156 41.522,1.061 45.117,0.827 C48.71,0.592 51.249,1.178 52.734,2.585 C55.702,5.631 55.976,10.397 53.555,16.881 C55.819,20.866 56.953,25.163 56.953,29.772 C56.953,30.866 56.913,31.843 56.836,32.702 L20.391,32.702 L20.391,32.702 Z" >

                        </path>
                    </g>
                </g>
                <text x="0" y="0" fill="red">IE</text>
            </g>
        </g>



        <g class="group-text-wrapper-4" ng-class="{svg_active: svg_PlayStop}"  stroke-width="0" fill="transparent">
            <g class="group-text-1">
                <g class="icon-text" stroke-width="0" fill="transparent" >
                    <g class="">
                        <g id="iot">
                            <path d="M53,15.7250093 L53,92.7250093 M14,53.2250093 L91,53.2250093 M78.7443473,26.5304269 L25.2556527,81.9195916 M79.2236111,80.4486203 L24.7763889,26.0013982" stroke="#FF0000" stroke-width="3" stroke-linecap="square">
                            </path>
                            <circle id="Oval-3" fill="#FF0000" cx="53.5" cy="52.5" r="16.5">
                            </circle>
                            <path d="M53.5,15 C57.6421356,15 61,11.6421356 61,7.5 C61,3.35786438 57.6421356,0 53.5,0 C49.3578644,0 46,3.35786438 46,7.5 C46,11.6421356 49.3578644,15 53.5,15 Z M76.3700577,29.1299423 C79.2989899,32.0588745 84.0477272,32.0588745 86.9766594,29.1299423 C89.9055916,26.2010101 89.9055916,21.4522728 86.9766594,18.5233406 C84.0477272,15.5944084 79.2989899,15.5944084 76.3700577,18.5233406 C73.4411255,21.4522728 73.4411255,26.2010101 76.3700577,29.1299423 Z M91.5,53 C91.5,57.1421356 94.8578644,60.5 99,60.5 C103.142136,60.5 106.5,57.1421356 106.5,53 C106.5,48.8578644 103.142136,45.5 99,45.5 C94.8578644,45.5 91.5,48.8578644 91.5,53 Z M76.3700577,77.8700577 C73.4411255,80.7989899 73.4411255,85.5477272 76.3700577,88.4766594 C79.2989899,91.4055916 84.0477272,91.4055916 86.9766594,88.4766594 C89.9055916,85.5477272 89.9055916,80.7989899 86.9766594,77.8700577 C84.0477272,74.9411255 79.2989899,74.9411255 76.3700577,77.8700577 Z M53.5,91 C49.3578644,91 46,94.3578644 46,98.5 C46,102.642136 49.3578644,106 53.5,106 C57.6421356,106 61,102.642136 61,98.5 C61,94.3578644 57.6421356,91 53.5,91 Z M28.6299423,77.8700577 C25.7010101,74.9411255 20.9522728,74.9411255 18.0233406,77.8700577 C15.0944084,80.7989899 15.0944084,85.5477272 18.0233406,88.4766594 C20.9522728,91.4055916 25.7010101,91.4055916 28.6299423,88.4766594 C31.5588745,85.5477272 31.5588745,80.7989899 28.6299423,77.8700577 Z M15.5,53 C15.5,48.8578644 12.1421356,45.5 8,45.5 C3.85786438,45.5 0.5,48.8578644 0.5,53 C0.5,57.1421356 3.85786438,60.5 8,60.5 C12.1421356,60.5 15.5,57.1421356 15.5,53 Z M28.6299423,29.1299423 C31.5588745,26.2010101 31.5588745,21.4522728 28.6299423,18.5233406 C25.7010101,15.5944084 20.9522728,15.5944084 18.0233406,18.5233406 C15.0944084,21.4522728 15.0944084,26.2010101 18.0233406,29.1299423 C20.9522728,32.0588745 25.7010101,32.0588745 28.6299423,29.1299423 Z" fill="#FF0000">
                            </path>
                        </g>
                    </g>
                </g>
                <text x="0" y="0">Internet of Things</text>
            </g>
        </g>
    </g>
</svg>