<?xml version="1.0" encoding="UTF-8" standalone="no"?>
<svg width="102px" height="102px" viewBox="0 0 102 102" version="1.1" xmlns="http://www.w3.org/2000/svg" xmlns:xlink="http://www.w3.org/1999/xlink" xmlns:sketch="http://www.bohemiancoding.com/sketch/ns">
    <!-- Generator: Sketch 3.4.2 (15855) - http://www.bohemiancoding.com/sketch -->
    <title>Page 1</title>
    <desc>Created with Sketch.</desc>
    <defs></defs>
    <g id="Page-1" stroke="none" stroke-width="1" fill="none" fill-rule="evenodd" sketch:type="MSPage">
        <g sketch:type="MSLayerGroup" fill="#221F20">
            <path d="M82.4707297,82.6367058 C74.3997479,76.4315348 63.6359661,72.8118688 52.3393115,72.5460942 L52.3393115,52.3340861 L95.5906085,52.3340861 C95.2433964,64.1675227 90.2944388,74.8448909 82.4707297,82.6367058 M52.3393115,95.6161545 L52.3393115,75.831233 C62.7088994,76.0894141 72.5678691,79.335559 80.0190206,84.9020499 C72.5330448,91.3229191 62.8970327,95.3046133 52.3393115,95.6161545 M21.9826691,84.9034865 C29.3767418,79.3829674 39.1757479,76.1386696 49.4365358,75.8384161 L49.4365358,95.6075348 C38.9674206,95.2465328 29.4150691,91.2779734 21.9826691,84.9034865 M6.40943273,52.3340861 L49.4365358,52.3340861 L49.4365358,72.5532773 C38.2501236,72.8627662 27.5388873,76.4773014 19.5272509,82.6346535 C11.7047782,74.8430439 6.75643879,64.1664966 6.40943273,52.3340861 M17.9146206,21.057233 C26.076063,28.0726575 37.3399539,32.1848789 49.4365358,32.5315147 L49.4365358,49.0503839 L6.43271758,49.0503839 C6.89491152,38.2956435 11.1578933,28.5270398 17.9146206,21.057233 M49.4365358,6.39242414 L49.4365358,29.2463759 C38.200463,28.9056918 27.7702933,25.1286133 20.2130206,18.6950197 C27.8681721,11.3891928 38.1172145,6.78277425 49.4365358,6.39242414 M81.8824267,18.7884 C74.2357236,25.2439533 63.6695539,29.0050237 52.3393115,29.2603316 L52.3393115,6.38400966 C63.7952509,6.72202575 74.1664873,11.380573 81.8824267,18.7884 M95.5673236,49.0503839 L52.3393115,49.0503839 L52.3393115,32.5448547 C64.5251176,32.285237 75.9241842,28.1916918 84.1744388,21.1573859 C90.8790327,28.6144684 95.1071903,38.3434624 95.5673236,49.0503839 M97.9936873,31.1562592 C95.4263782,25.0832571 91.7521115,19.6300539 87.0728873,14.947905 C82.3913964,10.2639091 76.9375903,6.58534165 70.8631297,4.01461328 C64.5688024,1.35070986 57.8856388,8.20925553e-05 50.9999176,8.20925553e-05 C44.1141964,8.20925553e-05 37.4312388,1.35070986 31.1367055,4.01461328 C25.0622448,6.58534165 19.6084388,10.2639091 14.9271539,14.947905 C10.2477236,19.6300539 6.57345697,25.0832571 4.00635394,31.1562592 C1.34796606,37.4449594 -8.24242424e-05,44.1215469 -8.24242424e-05,51.0000821 C-8.24242424e-05,57.8784121 1.34796606,64.5549996 4.00635394,70.8436998 C6.57345697,76.916907 10.2477236,82.3701103 14.9271539,87.0522592 C19.6084388,91.7362551 25.0622448,95.4146173 31.1367055,97.9853457 C37.4312388,100.649454 44.1141964,102.000082 50.9999176,102.000082 C57.8856388,102.000082 64.5688024,100.649454 70.8631297,97.9853457 C76.9375903,95.4146173 82.3913964,91.7362551 87.0728873,87.0522592 C91.7521115,82.3701103 95.4263782,76.916907 97.9936873,70.8436998 C100.652075,64.5549996 101.999918,57.8784121 101.999918,51.0000821 C101.999918,44.1215469 100.652075,37.4449594 97.9936873,31.1562592" id="Fill-1" sketch:type="MSShapeGroup"></path>
            <path d="M51.1471067,4.75258431 C45.6081976,9.08748169 41.0085127,14.247204 37.4634461,20.105534 C32.0613612,29.031868 29.3224036,39.3227855 29.3224036,50.692194 C29.3224036,62.3093167 31.7866824,72.081204 36.8559794,80.5662905 C41.0307673,87.5540089 46.3496036,92.5836145 51.1654461,96.5872684 C56.0066339,92.5680169 61.3487552,87.5238398 65.5157127,80.536532 C70.5565733,72.083872 73.0070461,62.3218358 73.0070461,50.692194 C73.0070461,39.3340732 70.2917855,29.0961054 64.9368885,20.2623308 C61.4437491,14.4996386 56.9250461,9.41564668 51.1471067,4.75258431 L51.1471067,4.75258431 Z M51.1642097,100.83761 L50.1209248,99.9867211 C44.8202218,95.6659847 38.7626582,90.1791235 34.0226461,82.2454938 C28.6413733,73.2382986 26.0254339,62.9170068 26.0254339,50.692194 C26.0254339,38.7169425 28.9236764,27.8556869 34.6395915,18.4103227 C38.6169733,11.8377875 43.8434945,6.09992837 50.1736764,1.35600483 L51.1846097,0.598495775 L52.1809127,1.37509135 C68.1879067,13.8519284 76.3040158,30.4446809 76.3040158,50.692194 C76.3040158,62.9284998 73.7022945,73.2391195 68.3502824,82.2134777 C63.619543,90.1462865 57.5356036,95.6497714 52.2083188,99.9873368 L51.1642097,100.83761 Z" id="Fill-4" sketch:type="MSShapeGroup"></path>
        </g>
    </g>
</svg>