<?xml version="1.0" encoding="UTF-8" standalone="no"?>
<svg width="51px" height="101px" viewBox="0 0 51 101" version="1.1" xmlns="http://www.w3.org/2000/svg" xmlns:xlink="http://www.w3.org/1999/xlink" xmlns:sketch="http://www.bohemiancoding.com/sketch/ns">
    <!-- Generator: Sketch 3.4.2 (15855) - http://www.bohemiancoding.com/sketch -->
    <title>Fill 4</title>
    <desc>Created with Sketch.</desc>
    <defs></defs>
    <g id="Page-1" stroke="none" stroke-width="1" fill="none" fill-rule="evenodd" sketch:type="MSPage">
        <path d="M25.1471067,4.75258431 C19.6081976,9.08748169 15.0085127,14.247204 11.4634461,20.105534 C6.06136121,29.031868 3.32240364,39.3227855 3.32240364,50.692194 C3.32240364,62.3093167 5.78668242,72.081204 10.8559794,80.5662905 C15.0307673,87.5540089 20.3496036,92.5836145 25.1654461,96.5872684 C30.0066339,92.5680169 35.3487552,87.5238398 39.5157127,80.536532 C44.5565733,72.083872 47.0070461,62.3218358 47.0070461,50.692194 C47.0070461,39.3340732 44.2917855,29.0961054 38.9368885,20.2623308 C35.4437491,14.4996386 30.9250461,9.41564668 25.1471067,4.75258431 L25.1471067,4.75258431 Z M25.1642097,100.83761 L24.1209248,99.9867211 C18.8202218,95.6659847 12.7626582,90.1791235 8.02264606,82.2454938 C2.64137333,73.2382986 0.0254339394,62.9170068 0.0254339394,50.692194 C0.0254339394,38.7169425 2.92367636,27.8556869 8.63959152,18.4103227 C12.6169733,11.8377875 17.8434945,6.09992837 24.1736764,1.35600483 L25.1846097,0.598495775 L26.1809127,1.37509135 C42.1879067,13.8519284 50.3040158,30.4446809 50.3040158,50.692194 C50.3040158,62.9284998 47.7022945,73.2391195 42.3502824,82.2134777 C37.619543,90.1462865 31.5356036,95.6497714 26.2083188,99.9873368 L25.1642097,100.83761 Z" id="Fill-4" fill="#221F20" sketch:type="MSShapeGroup"></path>
    </g>
</svg>