<?xml version="1.0" encoding="UTF-8" standalone="no"?>
<svg width="107px" height="106px" viewBox="0 0 107 106" version="1.1" xmlns="http://www.w3.org/2000/svg" xmlns:xlink="http://www.w3.org/1999/xlink" xmlns:sketch="http://www.bohemiancoding.com/sketch/ns">
    <!-- Generator: Sketch 3.4.2 (15855) - http://www.bohemiancoding.com/sketch -->
    <title>Line + Oval 3</title>
    <desc>Created with Sketch.</desc>
    <defs></defs>
    <g id="Page-1" stroke="none" stroke-width="1" fill="none" fill-rule="evenodd" sketch:type="MSPage">
        <g id="Bitmap" sketch:type="MSLayerGroup" transform="translate(-330.000000, -335.000000)">
            <g id="Line-+-Oval-3" transform="translate(330.000000, 335.000000)" sketch:type="MSShapeGroup">
                <path d="M53,15.7250093 L53,92.7250093 M14,53.2250093 L91,53.2250093 M78.7443473,26.5304269 L25.2556527,81.9195916 M79.2236111,80.4486203 L24.7763889,26.0013982" id="Line" stroke="#FF0000" stroke-width="3" stroke-linecap="square"></path>
                <circle id="Oval-3" fill="#FF0000" cx="53.5" cy="52.5" r="16.5"></circle>
                <path d="M53.5,15 C57.6421356,15 61,11.6421356 61,7.5 C61,3.35786438 57.6421356,0 53.5,0 C49.3578644,0 46,3.35786438 46,7.5 C46,11.6421356 49.3578644,15 53.5,15 Z M76.3700577,29.1299423 C79.2989899,32.0588745 84.0477272,32.0588745 86.9766594,29.1299423 C89.9055916,26.2010101 89.9055916,21.4522728 86.9766594,18.5233406 C84.0477272,15.5944084 79.2989899,15.5944084 76.3700577,18.5233406 C73.4411255,21.4522728 73.4411255,26.2010101 76.3700577,29.1299423 Z M91.5,53 C91.5,57.1421356 94.8578644,60.5 99,60.5 C103.142136,60.5 106.5,57.1421356 106.5,53 C106.5,48.8578644 103.142136,45.5 99,45.5 C94.8578644,45.5 91.5,48.8578644 91.5,53 Z M76.3700577,77.8700577 C73.4411255,80.7989899 73.4411255,85.5477272 76.3700577,88.4766594 C79.2989899,91.4055916 84.0477272,91.4055916 86.9766594,88.4766594 C89.9055916,85.5477272 89.9055916,80.7989899 86.9766594,77.8700577 C84.0477272,74.9411255 79.2989899,74.9411255 76.3700577,77.8700577 Z M53.5,91 C49.3578644,91 46,94.3578644 46,98.5 C46,102.642136 49.3578644,106 53.5,106 C57.6421356,106 61,102.642136 61,98.5 C61,94.3578644 57.6421356,91 53.5,91 Z M28.6299423,77.8700577 C25.7010101,74.9411255 20.9522728,74.9411255 18.0233406,77.8700577 C15.0944084,80.7989899 15.0944084,85.5477272 18.0233406,88.4766594 C20.9522728,91.4055916 25.7010101,91.4055916 28.6299423,88.4766594 C31.5588745,85.5477272 31.5588745,80.7989899 28.6299423,77.8700577 Z M15.5,53 C15.5,48.8578644 12.1421356,45.5 8,45.5 C3.85786438,45.5 0.5,48.8578644 0.5,53 C0.5,57.1421356 3.85786438,60.5 8,60.5 C12.1421356,60.5 15.5,57.1421356 15.5,53 Z M28.6299423,29.1299423 C31.5588745,26.2010101 31.5588745,21.4522728 28.6299423,18.5233406 C25.7010101,15.5944084 20.9522728,15.5944084 18.0233406,18.5233406 C15.0944084,21.4522728 15.0944084,26.2010101 18.0233406,29.1299423 C20.9522728,32.0588745 25.7010101,32.0588745 28.6299423,29.1299423 Z" id="Oval-4" fill="#FF0000"></path>
            </g>
        </g>
    </g>
</svg>