<?xml version="1.0" encoding="UTF-8" standalone="no"?>
<svg width="76px" height="101px" viewBox="0 0 76 101" version="1.1" xmlns="http://www.w3.org/2000/svg" xmlns:xlink="http://www.w3.org/1999/xlink" xmlns:sketch="http://www.bohemiancoding.com/sketch/ns">
    <!-- Generator: Sketch 3.4.2 (15855) - http://www.bohemiancoding.com/sketch -->
    <title>Rectangle 6</title>
    <desc>Created with Sketch.</desc>
    <defs></defs>
    <g id="Page-1" stroke="none" stroke-width="1" fill="none" fill-rule="evenodd" sketch:type="MSPage">
        <g id="ipad" sketch:type="MSLayerGroup" fill="#000000">
            <path d="M0,8.99461556 C0,4.02702656 4.03243067,0 8.99787322,0 L67.0021268,0 C71.9715149,0 76,4.02729807 76,8.99461556 L76,91.3655285 C76,96.3331175 71.9675693,100.360144 67.0021268,100.360144 L8.99787322,100.360144 C4.02848506,100.360144 0,96.332846 0,91.3655285 L0,8.99461556 Z M7.87804878,7.79051347 L67.6585366,7.79051347 L67.6585366,87.5287101 L7.87804878,87.5287101 L7.87804878,7.79051347 Z M38.695122,98.5270821 C40.8705851,98.5270821 42.6341463,96.7831162 42.6341463,94.6318253 C42.6341463,92.4805344 40.8705851,90.7365686 38.695122,90.7365686 C36.5196589,90.7365686 34.7560976,92.4805344 34.7560976,94.6318253 C34.7560976,96.7831162 36.5196589,98.5270821 38.695122,98.5270821 Z" id="Rectangle-6" sketch:type="MSShapeGroup"></path>
        </g>
    </g>
</svg>