<?xml version="1.0" encoding="UTF-8" standalone="no"?>
<svg width="56px" height="100px" viewBox="0 0 56 100" version="1.1" xmlns="http://www.w3.org/2000/svg" xmlns:xlink="http://www.w3.org/1999/xlink" xmlns:sketch="http://www.bohemiancoding.com/sketch/ns">
    <!-- Generator: Sketch 3.4.2 (15855) - http://www.bohemiancoding.com/sketch -->
    <title>iphone</title>
    <desc>Created with Sketch.</desc>
    <defs></defs>
    <g id="Page-1" stroke="none" stroke-width="1" fill="none" fill-rule="evenodd" sketch:type="MSPage">
        <g id="iphone" sketch:type="MSLayerGroup" fill="#000000">
            <path d="M0,5.99306484 C0,2.68318653 2.6784881,0 5.99580311,0 L49.5375302,0 C52.8489208,0 55.5333333,2.68768095 55.5333333,5.99306484 L55.5333333,94.0069352 C55.5333333,97.3168135 52.8548452,100 49.5375302,100 L5.99580311,100 C2.68441249,100 0,97.312319 0,94.0069352 L0,5.99306484 Z M22.2133333,10.443038 C22.2133333,9.91871701 22.631878,9.49367089 23.1558244,9.49367089 L33.0308423,9.49367089 C33.5513657,9.49367089 33.9733333,9.91506154 33.9733333,10.443038 C33.9733333,10.9673589 33.5547887,11.3924051 33.0308423,11.3924051 L23.1558244,11.3924051 C22.6353009,11.3924051 22.2133333,10.9710144 22.2133333,10.443038 Z M27.7666667,95.5696203 C30.1120359,95.5696203 32.0133333,93.7277537 32.0133333,91.4556962 C32.0133333,89.1836387 30.1120359,87.3417722 27.7666667,87.3417722 C25.4212974,87.3417722 23.52,89.1836387 23.52,91.4556962 C23.52,93.7277537 25.4212974,95.5696203 27.7666667,95.5696203 Z M5.22666667,16.4556962 L50.3066667,16.4556962 L50.3066667,84.1772152 L5.22666667,84.1772152 L5.22666667,16.4556962 Z" sketch:type="MSShapeGroup"></path>
        </g>
    </g>
</svg>