<?xml version="1.0" encoding="UTF-8" standalone="no"?>
<svg width="120px" height="100px" viewBox="0 0 120 100" version="1.1" xmlns="http://www.w3.org/2000/svg" xmlns:xlink="http://www.w3.org/1999/xlink" xmlns:sketch="http://www.bohemiancoding.com/sketch/ns">
    <!-- Generator: Sketch 3.4.2 (15855) - http://www.bohemiancoding.com/sketch -->
    <title>Path 24 Copy</title>
    <desc>Created with Sketch.</desc>
    <defs></defs>
    <g id="Page-1" stroke="none" stroke-width="1" fill="none" fill-rule="evenodd" sketch:type="MSPage">
        <g id="Path-24-Copy" sketch:type="MSLayerGroup" fill="#000000">
            <path d="M0,9.00213944 C0,4.03039511 4.0349711,0 9.00973427,0 L110.2101,0 C115.186039,0 119.219835,4.02611559 119.219835,9.00213944 L119.219835,72.7479519 C119.219835,77.7196962 115.184864,81.7500913 110.2101,81.7500913 L9.00973427,81.7500913 C4.03379543,81.7500913 0,77.7239758 0,72.7479519 L0,9.00213944 Z M6,11.0002024 C6,8.23866685 8.23484707,6 10.9995042,6 L108.000496,6 C110.761646,6 113,8.24311338 113,11.0002024 L113,68.9997976 C113,71.7613332 110.765153,74 108.000496,74 L10.9995042,74 C8.23835425,74 6,71.7568866 6,68.9997976 L6,11.0002024 Z M44.2428702,81.8724495 C44.2428702,81.8724495 43.6099799,87.2385128 43.1419764,88.7536902 C42.7208291,90.1171691 41.6891191,93.6432278 39.8375039,94.8013938 C34.4610353,98.1643188 39.1391741,99.5615638 39.1391741,99.5615638 L57.5476318,99.5139118 L57.5476318,81.7500913 L44.2428702,81.8724495 Z M70.8523934,81.8724495 C70.8523934,81.8724495 71.4852838,87.2385128 71.9532873,88.7536902 C72.3744345,90.1171691 73.4061446,93.6432278 75.2577597,94.8013938 C80.6342283,98.1643188 75.9560896,99.5615638 75.9560896,99.5615638 L57.5476318,99.5139118 L57.5476318,81.7500913 L70.8523934,81.8724495 Z" sketch:type="MSShapeGroup"></path>
        </g>
    </g>
</svg>