<?xml version="1.0" encoding="UTF-8" standalone="no"?>
<svg width="59px" height="102px" viewBox="0 0 59 102" version="1.1" xmlns="http://www.w3.org/2000/svg" xmlns:xlink="http://www.w3.org/1999/xlink" xmlns:sketch="http://www.bohemiancoding.com/sketch/ns">
    <!-- Generator: Sketch 3.4.2 (15855) - http://www.bohemiancoding.com/sketch -->
    <title>Fill 1</title>
    <desc>Created with Sketch.</desc>
    <defs></defs>
    <g id="Page-1" stroke="none" stroke-width="1" fill="none" fill-rule="evenodd" sketch:type="MSPage">
        <g id="smartwatch" sketch:type="MSLayerGroup" fill="#000000">
            <path d="M44.7151233,57.1423125 C41.5960963,57.1423125 39.0674679,54.6451055 39.0674679,51.5641875 C39.0674679,48.483668 41.5960963,45.9862617 44.7151233,45.9862617 C47.833951,45.9862617 50.3625794,48.483668 50.3625794,51.5641875 C50.3625794,54.6451055 47.833951,57.1423125 44.7151233,57.1423125 M35.8119037,71.6189414 C32.6928767,71.6189414 30.1642483,69.1217344 30.1642483,66.0408164 C30.1642483,62.9602969 32.6928767,60.4628906 35.8119037,60.4628906 C38.9307314,60.4628906 41.4593598,62.9602969 41.4593598,66.0408164 C41.4593598,69.1217344 38.9307314,71.6189414 35.8119037,71.6189414 M21.5799476,51.0661406 C21.5799476,47.563875 24.454603,44.7246094 28.0007821,44.7246094 C31.5467618,44.7246094 34.4212179,47.563875 34.4212179,51.0661406 C34.4212179,54.5688047 31.5467618,57.4078711 28.0007821,57.4078711 C24.454603,57.4078711 21.5799476,54.5688047 21.5799476,51.0661406 M19.9989071,71.6189414 C16.8796807,71.6189414 14.3512517,69.1217344 14.3512517,66.0408164 C14.3512517,62.9602969 16.8796807,60.4628906 19.9989071,60.4628906 C23.1177348,60.4628906 25.6463632,62.9602969 25.6463632,66.0408164 C25.6463632,69.1217344 23.1177348,71.6189414 19.9989071,71.6189414 M5.58098142,51.5641875 C5.58098142,48.483668 8.1096098,45.9862617 11.2286368,45.9862617 C14.3474645,45.9862617 16.8760929,48.483668 16.8760929,51.5641875 C16.8760929,54.6451055 14.3474645,57.1423125 11.2286368,57.1423125 C8.1096098,57.1423125 5.58098142,54.6451055 5.58098142,51.5641875 M19.9987078,30.3143203 C23.1177348,30.3143203 25.6463632,32.8119258 25.6463632,35.8924453 C25.6463632,38.9731641 23.1177348,41.4705703 19.9987078,41.4705703 C16.8796807,41.4705703 14.3512517,38.9731641 14.3512517,35.8924453 C14.3512517,32.8119258 16.8796807,30.3143203 19.9987078,30.3143203 M35.8119037,30.3143203 C38.9307314,30.3143203 41.4593598,32.8119258 41.4593598,35.8924453 C41.4593598,38.9731641 38.9307314,41.4705703 35.8119037,41.4705703 C32.6928767,41.4705703 30.1642483,38.9731641 30.1642483,35.8924453 C30.1642483,32.8119258 32.6928767,30.3143203 35.8119037,30.3143203 M57.2725557,33.1033828 L55.9436605,33.1033828 L55.9436605,29.1855469 C55.9436605,23.7942891 51.5708834,19.4238281 46.1767686,19.4238281 L9.76699155,19.4238281 C4.37267736,19.4238281 9.96621622e-05,23.7942891 9.96621622e-05,29.1855469 L9.96621622e-05,73.2792305 C9.96621622e-05,78.6704883 4.37267736,83.0409492 9.76699155,83.0409492 L46.1767686,83.0409492 C51.5708834,83.0409492 55.9436605,78.6704883 55.9436605,73.2792305 L55.9436605,69.7596328 L58.0032787,69.7596328 C58.1868564,69.7596328 58.3355524,69.6110156 58.3355524,69.4277344 L58.3355524,53.8886719 C58.3355524,53.7051914 58.1868564,53.5565742 58.0032787,53.5565742 L55.9436605,53.5565742 L55.9436605,44.7246094 L57.2725557,44.7246094 C58.226522,44.7246094 58.9999003,43.9516406 58.9999003,42.9979805 L58.9999003,34.8298125 C58.9999003,33.8763516 58.226522,33.1033828 57.2725557,33.1033828 Z M10.4978142,98.4806016 C10.4978142,100.424379 12.0744696,102 14.019277,102 L41.7915338,102 C43.7363412,102 45.3129966,100.424379 45.3129966,98.4806016 L46.9075912,87.0916641 C46.9075912,86.5414219 46.4613041,86.0955703 45.9109696,86.0955703 L9.76669257,86.0955703 C9.21635811,86.0955703 8.77007095,86.5414219 8.77007095,87.0916641 L10.4978142,98.4806016 Z M10.4978142,3.51939844 C10.4978142,1.57562109 12.0744696,0 14.019277,0 L41.7915338,0 C43.7363412,0 45.3129966,1.57562109 45.3129966,3.51939844 L46.9075912,14.9083359 C46.9075912,15.4585781 46.4613041,15.9044297 45.9109696,15.9044297 L9.76669257,15.9044297 C9.21635811,15.9044297 8.77007095,15.4585781 8.77007095,14.9083359 L10.4978142,3.51939844 Z" id="Fill-1" sketch:type="MSShapeGroup"></path>
        </g>
    </g>
</svg>